%TF.GenerationSoftware,KiCad,Pcbnew,8.0.6*%
%TF.CreationDate,2024-12-03T18:47:33+00:00*%
%TF.ProjectId,pcb,7063622e-6b69-4636-9164-5f7063625858,rev?*%
%TF.SameCoordinates,Original*%
%TF.FileFunction,Paste,Bot*%
%TF.FilePolarity,Positive*%
%FSLAX46Y46*%
G04 Gerber Fmt 4.6, Leading zero omitted, Abs format (unit mm)*
G04 Created by KiCad (PCBNEW 8.0.6) date 2024-12-03 18:47:33*
%MOMM*%
%LPD*%
G01*
G04 APERTURE LIST*
G04 Aperture macros list*
%AMRoundRect*
0 Rectangle with rounded corners*
0 $1 Rounding radius*
0 $2 $3 $4 $5 $6 $7 $8 $9 X,Y pos of 4 corners*
0 Add a 4 corners polygon primitive as box body*
4,1,4,$2,$3,$4,$5,$6,$7,$8,$9,$2,$3,0*
0 Add four circle primitives for the rounded corners*
1,1,$1+$1,$2,$3*
1,1,$1+$1,$4,$5*
1,1,$1+$1,$6,$7*
1,1,$1+$1,$8,$9*
0 Add four rect primitives between the rounded corners*
20,1,$1+$1,$2,$3,$4,$5,0*
20,1,$1+$1,$4,$5,$6,$7,0*
20,1,$1+$1,$6,$7,$8,$9,0*
20,1,$1+$1,$8,$9,$2,$3,0*%
G04 Aperture macros list end*
%ADD10RoundRect,0.250000X0.550000X-1.500000X0.550000X1.500000X-0.550000X1.500000X-0.550000X-1.500000X0*%
%ADD11RoundRect,0.250000X-1.500000X-0.550000X1.500000X-0.550000X1.500000X0.550000X-1.500000X0.550000X0*%
%ADD12RoundRect,0.237500X-0.287500X-0.237500X0.287500X-0.237500X0.287500X0.237500X-0.287500X0.237500X0*%
%ADD13RoundRect,0.225000X-0.250000X0.225000X-0.250000X-0.225000X0.250000X-0.225000X0.250000X0.225000X0*%
%ADD14RoundRect,0.237500X0.287500X0.237500X-0.287500X0.237500X-0.287500X-0.237500X0.287500X-0.237500X0*%
%ADD15RoundRect,0.237500X0.237500X-0.287500X0.237500X0.287500X-0.237500X0.287500X-0.237500X-0.287500X0*%
%ADD16RoundRect,0.250000X1.500000X0.550000X-1.500000X0.550000X-1.500000X-0.550000X1.500000X-0.550000X0*%
%ADD17RoundRect,0.225000X0.225000X0.250000X-0.225000X0.250000X-0.225000X-0.250000X0.225000X-0.250000X0*%
%ADD18RoundRect,0.150000X0.725000X0.150000X-0.725000X0.150000X-0.725000X-0.150000X0.725000X-0.150000X0*%
%ADD19RoundRect,0.237500X-0.237500X0.287500X-0.237500X-0.287500X0.237500X-0.287500X0.237500X0.287500X0*%
%ADD20RoundRect,0.150000X0.825000X0.150000X-0.825000X0.150000X-0.825000X-0.150000X0.825000X-0.150000X0*%
%ADD21RoundRect,0.225000X-0.225000X-0.250000X0.225000X-0.250000X0.225000X0.250000X-0.225000X0.250000X0*%
G04 APERTURE END LIST*
D10*
%TO.C,C18*%
X143200000Y-106300000D03*
X143200000Y-100900000D03*
%TD*%
D11*
%TO.C,C8*%
X132100000Y-38800000D03*
X137500000Y-38800000D03*
%TD*%
D12*
%TO.C,R13*%
X96525000Y-48600000D03*
X98275000Y-48600000D03*
%TD*%
D13*
%TO.C,C14*%
X102700000Y-43750000D03*
X102700000Y-45300000D03*
%TD*%
%TO.C,C15*%
X102700000Y-52650000D03*
X102700000Y-54200000D03*
%TD*%
D14*
%TO.C,R10*%
X124075000Y-53800000D03*
X122325000Y-53800000D03*
%TD*%
D15*
%TO.C,R24*%
X75600000Y-81775000D03*
X75600000Y-80025000D03*
%TD*%
D14*
%TO.C,R16*%
X109275000Y-49125000D03*
X107525000Y-49125000D03*
%TD*%
D16*
%TO.C,C19*%
X137200000Y-103500000D03*
X131800000Y-103500000D03*
%TD*%
D15*
%TO.C,R26*%
X70600000Y-81700000D03*
X70600000Y-79950000D03*
%TD*%
D14*
%TO.C,R17*%
X98275000Y-43800000D03*
X96525000Y-43800000D03*
%TD*%
D17*
%TO.C,C7*%
X116175000Y-39000000D03*
X114625000Y-39000000D03*
%TD*%
D18*
%TO.C,U3*%
X110975000Y-42720000D03*
X110975000Y-43990000D03*
X110975000Y-45260000D03*
X110975000Y-46530000D03*
X105825000Y-46530000D03*
X105825000Y-45260000D03*
X105825000Y-43990000D03*
X105825000Y-42720000D03*
%TD*%
D17*
%TO.C,C6*%
X120375000Y-39000000D03*
X118825000Y-39000000D03*
%TD*%
D19*
%TO.C,R28*%
X73100000Y-69925000D03*
X73100000Y-71675000D03*
%TD*%
D18*
%TO.C,U4*%
X110875000Y-51620000D03*
X110875000Y-52890000D03*
X110875000Y-54160000D03*
X110875000Y-55430000D03*
X105725000Y-55430000D03*
X105725000Y-54160000D03*
X105725000Y-52890000D03*
X105725000Y-51620000D03*
%TD*%
D11*
%TO.C,C1*%
X111300000Y-103400000D03*
X116700000Y-103400000D03*
%TD*%
D15*
%TO.C,R23*%
X78100000Y-81775000D03*
X78100000Y-80025000D03*
%TD*%
D11*
%TO.C,C9*%
X131900000Y-56600000D03*
X137300000Y-56600000D03*
%TD*%
D16*
%TO.C,C11*%
X100500000Y-131200000D03*
X95100000Y-131200000D03*
%TD*%
D15*
%TO.C,R25*%
X73100000Y-81775000D03*
X73100000Y-80025000D03*
%TD*%
D12*
%TO.C,R8*%
X114525000Y-41400000D03*
X116275000Y-41400000D03*
%TD*%
D14*
%TO.C,R11*%
X98275000Y-51500000D03*
X96525000Y-51500000D03*
%TD*%
%TO.C,R12*%
X119875000Y-53800000D03*
X118125000Y-53800000D03*
%TD*%
D12*
%TO.C,R2*%
X127325000Y-46200000D03*
X129075000Y-46200000D03*
%TD*%
D14*
%TO.C,R1*%
X82475000Y-51800000D03*
X80725000Y-51800000D03*
%TD*%
D16*
%TO.C,C10*%
X100300000Y-120400000D03*
X94900000Y-120400000D03*
%TD*%
D11*
%TO.C,C2*%
X121700000Y-103400000D03*
X127100000Y-103400000D03*
%TD*%
D19*
%TO.C,R30*%
X78100000Y-69925000D03*
X78100000Y-71675000D03*
%TD*%
D12*
%TO.C,R6*%
X122225000Y-42800000D03*
X123975000Y-42800000D03*
%TD*%
D20*
%TO.C,U8*%
X62175000Y-71555000D03*
X62175000Y-72825000D03*
X62175000Y-74095000D03*
X62175000Y-75365000D03*
X62175000Y-76635000D03*
X62175000Y-77905000D03*
X62175000Y-79175000D03*
X62175000Y-80445000D03*
X57225000Y-80445000D03*
X57225000Y-79175000D03*
X57225000Y-77905000D03*
X57225000Y-76635000D03*
X57225000Y-75365000D03*
X57225000Y-74095000D03*
X57225000Y-72825000D03*
X57225000Y-71555000D03*
%TD*%
D12*
%TO.C,R5*%
X137125000Y-45400000D03*
X138875000Y-45400000D03*
%TD*%
D13*
%TO.C,C17*%
X114500000Y-45125000D03*
X114500000Y-46675000D03*
%TD*%
D19*
%TO.C,R29*%
X75600000Y-69925000D03*
X75600000Y-71675000D03*
%TD*%
D14*
%TO.C,R3*%
X138875000Y-49000000D03*
X137125000Y-49000000D03*
%TD*%
D19*
%TO.C,R27*%
X70600000Y-69925000D03*
X70600000Y-71675000D03*
%TD*%
D14*
%TO.C,R4*%
X129075000Y-42800000D03*
X127325000Y-42800000D03*
%TD*%
D12*
%TO.C,R14*%
X122250000Y-56600000D03*
X124000000Y-56600000D03*
%TD*%
D13*
%TO.C,C16*%
X114600000Y-53850000D03*
X114600000Y-55400000D03*
%TD*%
D12*
%TO.C,R9*%
X118725000Y-41400000D03*
X120475000Y-41400000D03*
%TD*%
D17*
%TO.C,C12*%
X119775000Y-56600000D03*
X118225000Y-56600000D03*
%TD*%
D12*
%TO.C,R7*%
X109125000Y-39000000D03*
X110875000Y-39000000D03*
%TD*%
D21*
%TO.C,C13*%
X96625000Y-46100000D03*
X98175000Y-46100000D03*
%TD*%
D14*
%TO.C,R15*%
X98275000Y-54400000D03*
X96525000Y-54400000D03*
%TD*%
M02*
