%TF.GenerationSoftware,KiCad,Pcbnew,8.0.6*%
%TF.CreationDate,2024-12-03T18:47:33+00:00*%
%TF.ProjectId,pcb,7063622e-6b69-4636-9164-5f7063625858,rev?*%
%TF.SameCoordinates,Original*%
%TF.FileFunction,Soldermask,Top*%
%TF.FilePolarity,Negative*%
%FSLAX46Y46*%
G04 Gerber Fmt 4.6, Leading zero omitted, Abs format (unit mm)*
G04 Created by KiCad (PCBNEW 8.0.6) date 2024-12-03 18:47:33*
%MOMM*%
%LPD*%
G01*
G04 APERTURE LIST*
G04 Aperture macros list*
%AMRoundRect*
0 Rectangle with rounded corners*
0 $1 Rounding radius*
0 $2 $3 $4 $5 $6 $7 $8 $9 X,Y pos of 4 corners*
0 Add a 4 corners polygon primitive as box body*
4,1,4,$2,$3,$4,$5,$6,$7,$8,$9,$2,$3,0*
0 Add four circle primitives for the rounded corners*
1,1,$1+$1,$2,$3*
1,1,$1+$1,$4,$5*
1,1,$1+$1,$6,$7*
1,1,$1+$1,$8,$9*
0 Add four rect primitives between the rounded corners*
20,1,$1+$1,$2,$3,$4,$5,0*
20,1,$1+$1,$4,$5,$6,$7,0*
20,1,$1+$1,$6,$7,$8,$9,0*
20,1,$1+$1,$8,$9,$2,$3,0*%
G04 Aperture macros list end*
%ADD10RoundRect,0.112500X0.187500X0.112500X-0.187500X0.112500X-0.187500X-0.112500X0.187500X-0.112500X0*%
%ADD11RoundRect,0.237500X0.287500X0.237500X-0.287500X0.237500X-0.287500X-0.237500X0.287500X-0.237500X0*%
%ADD12C,3.000000*%
%ADD13C,2.600000*%
%ADD14R,2.000000X2.000000*%
%ADD15C,2.000000*%
%ADD16R,2.000000X3.200000*%
%ADD17RoundRect,0.237500X-0.287500X-0.237500X0.287500X-0.237500X0.287500X0.237500X-0.287500X0.237500X0*%
%ADD18C,3.240000*%
%ADD19R,1.800000X1.800000*%
%ADD20C,1.800000*%
%ADD21RoundRect,0.150000X-0.825000X-0.150000X0.825000X-0.150000X0.825000X0.150000X-0.825000X0.150000X0*%
%ADD22RoundRect,0.250000X0.600000X-0.600000X0.600000X0.600000X-0.600000X0.600000X-0.600000X-0.600000X0*%
%ADD23C,1.700000*%
%ADD24RoundRect,0.375000X-0.375000X0.625000X-0.375000X-0.625000X0.375000X-0.625000X0.375000X0.625000X0*%
%ADD25RoundRect,0.500000X-1.400000X0.500000X-1.400000X-0.500000X1.400000X-0.500000X1.400000X0.500000X0*%
%ADD26RoundRect,0.225000X-0.225000X-0.250000X0.225000X-0.250000X0.225000X0.250000X-0.225000X0.250000X0*%
%ADD27C,1.524000*%
%ADD28RoundRect,0.200000X0.200000X-0.250000X0.200000X0.250000X-0.200000X0.250000X-0.200000X-0.250000X0*%
%ADD29R,2.200000X2.200000*%
%ADD30O,2.200000X2.200000*%
%ADD31O,1.800000X1.800000*%
%ADD32O,1.500000X1.500000*%
%ADD33O,1.700000X1.700000*%
%ADD34R,1.700000X3.500000*%
%ADD35R,1.700000X1.700000*%
%ADD36R,3.500000X1.700000*%
%ADD37C,2.500000*%
%ADD38C,1.500000*%
%ADD39RoundRect,0.200000X0.250000X0.200000X-0.250000X0.200000X-0.250000X-0.200000X0.250000X-0.200000X0*%
%ADD40R,1.500000X1.500000*%
%ADD41O,3.000000X3.900000*%
G04 APERTURE END LIST*
D10*
%TO.C,D4*%
X34600000Y-96900000D03*
X32500000Y-96900000D03*
%TD*%
%TO.C,D6*%
X34600000Y-89500000D03*
X32500000Y-89500000D03*
%TD*%
D11*
%TO.C,R18*%
X111100000Y-65800000D03*
X109350000Y-65800000D03*
%TD*%
D12*
%TO.C,J2*%
X48500000Y-133000000D03*
D13*
X48500000Y-126520000D03*
X48500000Y-129620000D03*
X48500000Y-137920000D03*
%TD*%
D14*
%TO.C,SW3*%
X56800000Y-62900000D03*
D15*
X61800000Y-62900000D03*
X59300000Y-62900000D03*
D16*
X53700000Y-55400000D03*
X64900000Y-55400000D03*
D15*
X61800000Y-48400000D03*
X56800000Y-48400000D03*
%TD*%
D12*
%TO.C,J4*%
X81100000Y-133000000D03*
D13*
X81100000Y-126520000D03*
X81100000Y-129620000D03*
X81100000Y-137920000D03*
%TD*%
D17*
%TO.C,R21*%
X135250000Y-133883000D03*
X137000000Y-133883000D03*
%TD*%
D18*
%TO.C,RV3*%
X64170000Y-94200000D03*
X54570000Y-94200000D03*
D19*
X61870000Y-86700000D03*
D20*
X59370000Y-86700000D03*
X56870000Y-86700000D03*
%TD*%
D21*
%TO.C,U6*%
X133425000Y-64695000D03*
X133425000Y-65965000D03*
X133425000Y-67235000D03*
X133425000Y-68505000D03*
X138375000Y-68505000D03*
X138375000Y-67235000D03*
X138375000Y-65965000D03*
X138375000Y-64695000D03*
%TD*%
D18*
%TO.C,RV2*%
X70730000Y-36000000D03*
X80330000Y-36000000D03*
D19*
X73030000Y-43500000D03*
D20*
X75530000Y-43500000D03*
X78030000Y-43500000D03*
%TD*%
D12*
%TO.C,J5*%
X70100000Y-133000000D03*
D13*
X70100000Y-126520000D03*
X70100000Y-129620000D03*
X70100000Y-137920000D03*
%TD*%
D11*
%TO.C,R20*%
X132175000Y-134100000D03*
X130425000Y-134100000D03*
%TD*%
D18*
%TO.C,RV4*%
X38130000Y-36000000D03*
X47730000Y-36000000D03*
D19*
X40430000Y-43500000D03*
D20*
X42930000Y-43500000D03*
X45430000Y-43500000D03*
%TD*%
D22*
%TO.C,J1*%
X129800000Y-127840000D03*
D23*
X129800000Y-125300000D03*
X132340000Y-127840000D03*
X132340000Y-125300000D03*
X134880000Y-127840000D03*
X134880000Y-125300000D03*
X137420000Y-127840000D03*
X137420000Y-125300000D03*
X139960000Y-127840000D03*
X139960000Y-125300000D03*
%TD*%
D24*
%TO.C,U7*%
X137000000Y-112250000D03*
X134700000Y-112250000D03*
D25*
X134700000Y-118550000D03*
D24*
X132400000Y-112250000D03*
%TD*%
D26*
%TO.C,C3*%
X142525000Y-64100000D03*
X144075000Y-64100000D03*
%TD*%
D27*
%TO.C,SW4*%
X38460000Y-94200000D03*
X41000000Y-94200000D03*
X43540000Y-94200000D03*
%TD*%
D10*
%TO.C,D5*%
X34600000Y-93200000D03*
X32500000Y-93200000D03*
%TD*%
D17*
%TO.C,R22*%
X135250000Y-136400000D03*
X137000000Y-136400000D03*
%TD*%
D19*
%TO.C,D7*%
X81100000Y-103000000D03*
D20*
X81100000Y-100460000D03*
%TD*%
D23*
%TO.C,U2*%
X122100000Y-35200000D03*
X119560000Y-35200000D03*
X117020000Y-35200000D03*
X114480000Y-35200000D03*
X111940000Y-35200000D03*
X109400000Y-35200000D03*
X109400000Y-60600000D03*
X111940000Y-60600000D03*
X114480000Y-60600000D03*
X117020000Y-60600000D03*
X119560000Y-60600000D03*
X122100000Y-60600000D03*
X132260000Y-50440000D03*
X132260000Y-47900000D03*
X132260000Y-45360000D03*
%TD*%
D28*
%TO.C,Q1*%
X93700000Y-67400000D03*
X95600000Y-67400000D03*
X94650000Y-65400000D03*
%TD*%
D23*
%TO.C,U5*%
X107320000Y-131360000D03*
X107320000Y-128820000D03*
X107320000Y-126280000D03*
X107320000Y-123740000D03*
X107320000Y-121200000D03*
X107320000Y-118660000D03*
X107320000Y-116120000D03*
X107320000Y-113580000D03*
X107320000Y-111040000D03*
X106920000Y-104910000D03*
X104380000Y-104910000D03*
X101840000Y-104910000D03*
X99300000Y-104910000D03*
X96760000Y-104910000D03*
X94220000Y-104910000D03*
%TD*%
D29*
%TO.C,D2*%
X127200000Y-118810000D03*
D30*
X127200000Y-111190000D03*
%TD*%
D31*
%TO.C,U1*%
X93570000Y-87915000D03*
D32*
X96600000Y-87615000D03*
X96600000Y-82765000D03*
D31*
X93570000Y-82465000D03*
D33*
X93440000Y-94080000D03*
D34*
X93440000Y-94980000D03*
D33*
X95980000Y-94080000D03*
D34*
X95980000Y-94980000D03*
D35*
X98520000Y-94080000D03*
D34*
X98520000Y-94980000D03*
D33*
X101060000Y-94080000D03*
D34*
X101060000Y-94980000D03*
D33*
X103600000Y-94080000D03*
D34*
X103600000Y-94980000D03*
D33*
X106140000Y-94080000D03*
D34*
X106140000Y-94980000D03*
D33*
X108680000Y-94080000D03*
D34*
X108680000Y-94980000D03*
D35*
X111220000Y-94080000D03*
D34*
X111220000Y-94980000D03*
D33*
X113760000Y-94080000D03*
D34*
X113760000Y-94980000D03*
D33*
X116300000Y-94080000D03*
D34*
X116300000Y-94980000D03*
D33*
X118840000Y-94080000D03*
D34*
X118840000Y-94980000D03*
D33*
X121380000Y-94080000D03*
D34*
X121380000Y-94980000D03*
D35*
X123920000Y-94080000D03*
D34*
X123920000Y-94980000D03*
D33*
X126460000Y-94080000D03*
D34*
X126460000Y-94980000D03*
D33*
X129000000Y-94080000D03*
D34*
X129000000Y-94980000D03*
D33*
X131540000Y-94080000D03*
D34*
X131540000Y-94980000D03*
D33*
X134080000Y-94080000D03*
D34*
X134080000Y-94980000D03*
D35*
X136620000Y-94080000D03*
D34*
X136620000Y-94980000D03*
D33*
X139160000Y-94080000D03*
D34*
X139160000Y-94980000D03*
D33*
X141700000Y-94080000D03*
D34*
X141700000Y-94980000D03*
D33*
X141700000Y-76300000D03*
D34*
X141700000Y-75400000D03*
D33*
X139160000Y-76300000D03*
D34*
X139160000Y-75400000D03*
D35*
X136620000Y-76300000D03*
D34*
X136620000Y-75400000D03*
D33*
X134080000Y-76300000D03*
D34*
X134080000Y-75400000D03*
D33*
X131540000Y-76300000D03*
D34*
X131540000Y-75400000D03*
D33*
X129000000Y-76300000D03*
D34*
X129000000Y-75400000D03*
D33*
X126460000Y-76300000D03*
D34*
X126460000Y-75400000D03*
D35*
X123920000Y-76300000D03*
D34*
X123920000Y-75400000D03*
D33*
X121380000Y-76300000D03*
D34*
X121380000Y-75400000D03*
D33*
X118840000Y-76300000D03*
D34*
X118840000Y-75400000D03*
D33*
X116300000Y-76300000D03*
D34*
X116300000Y-75400000D03*
D33*
X113760000Y-76300000D03*
D34*
X113760000Y-75400000D03*
D35*
X111220000Y-76300000D03*
D34*
X111220000Y-75400000D03*
D33*
X108680000Y-76300000D03*
D34*
X108680000Y-75400000D03*
D33*
X106140000Y-76300000D03*
D34*
X106140000Y-75400000D03*
D33*
X103600000Y-76300000D03*
D34*
X103600000Y-75400000D03*
D33*
X101060000Y-76300000D03*
D34*
X101060000Y-75400000D03*
D35*
X98520000Y-76300000D03*
D34*
X98520000Y-75400000D03*
D33*
X95980000Y-76300000D03*
D34*
X95980000Y-75400000D03*
D33*
X93440000Y-76300000D03*
D34*
X93440000Y-75400000D03*
D33*
X141470000Y-87730000D03*
D36*
X142370000Y-87730000D03*
D35*
X141470000Y-85190000D03*
D36*
X142370000Y-85190000D03*
D33*
X141470000Y-82650000D03*
D36*
X142370000Y-82650000D03*
%TD*%
D37*
%TO.C,SW1*%
X35000000Y-74800000D03*
X51000000Y-74800000D03*
D38*
X48000000Y-85050000D03*
X45500000Y-85050000D03*
X43000000Y-85050000D03*
X40500000Y-85050000D03*
X38000000Y-85050000D03*
X38000000Y-66750000D03*
X40500000Y-66750000D03*
X43000000Y-66750000D03*
X45500000Y-66750000D03*
X48000000Y-66750000D03*
%TD*%
D39*
%TO.C,Q3*%
X126900000Y-135050000D03*
X126900000Y-133150000D03*
X124900000Y-134100000D03*
%TD*%
D12*
%TO.C,J7*%
X70100000Y-113600000D03*
D13*
X70100000Y-120080000D03*
X70100000Y-116980000D03*
X70100000Y-108680000D03*
%TD*%
D12*
%TO.C,J6*%
X81100000Y-113600000D03*
D13*
X81100000Y-120080000D03*
X81100000Y-116980000D03*
X81100000Y-108680000D03*
%TD*%
D27*
%TO.C,SW2*%
X75060000Y-94200000D03*
X77600000Y-94200000D03*
X80140000Y-94200000D03*
%TD*%
D39*
%TO.C,Q2*%
X123600000Y-67000000D03*
X123600000Y-65100000D03*
X121600000Y-66050000D03*
%TD*%
D37*
%TO.C,SW5*%
X67600000Y-74800000D03*
X83600000Y-74800000D03*
D38*
X80600000Y-85050000D03*
X78100000Y-85050000D03*
X75600000Y-85050000D03*
X73100000Y-85050000D03*
X70600000Y-85050000D03*
X70600000Y-66750000D03*
X73100000Y-66750000D03*
X75600000Y-66750000D03*
X78100000Y-66750000D03*
X80600000Y-66750000D03*
%TD*%
D10*
%TO.C,D3*%
X34600000Y-100600000D03*
X32500000Y-100600000D03*
%TD*%
D29*
%TO.C,D1*%
X143200000Y-111590000D03*
D30*
X143200000Y-119210000D03*
%TD*%
D26*
%TO.C,C20*%
X135325000Y-109100000D03*
X136875000Y-109100000D03*
%TD*%
D12*
%TO.C,J3*%
X37500000Y-133000000D03*
D13*
X37500000Y-126520000D03*
X37500000Y-129620000D03*
X37500000Y-137920000D03*
%TD*%
D11*
%TO.C,R19*%
X128575000Y-67000000D03*
X126825000Y-67000000D03*
%TD*%
D40*
%TO.C,RV1*%
X46150000Y-102700000D03*
D38*
X48150000Y-102700000D03*
X38150000Y-102700000D03*
X44150000Y-102700000D03*
X42150000Y-102700000D03*
X40150000Y-102700000D03*
D41*
X48950000Y-113700000D03*
X37350000Y-113700000D03*
%TD*%
D35*
%TO.C,J12*%
X62300000Y-111000000D03*
D33*
X62300000Y-113540000D03*
X62300000Y-116080000D03*
X62300000Y-118620000D03*
X62300000Y-121160000D03*
X62300000Y-123700000D03*
X62300000Y-126240000D03*
X62300000Y-128780000D03*
X62300000Y-131320000D03*
X62300000Y-133860000D03*
%TD*%
D35*
%TO.C,J16*%
X85600000Y-36500000D03*
D33*
X85600000Y-39040000D03*
X85600000Y-41580000D03*
X85600000Y-44120000D03*
X85600000Y-46660000D03*
X85600000Y-49200000D03*
X85600000Y-51740000D03*
X85600000Y-54280000D03*
X85600000Y-56820000D03*
X85600000Y-59360000D03*
%TD*%
D35*
%TO.C,J15*%
X91600000Y-36500000D03*
D33*
X91600000Y-39040000D03*
X91600000Y-41580000D03*
X91600000Y-44120000D03*
X91600000Y-46660000D03*
X91600000Y-49200000D03*
X91600000Y-51740000D03*
X91600000Y-54280000D03*
X91600000Y-56820000D03*
X91600000Y-59360000D03*
%TD*%
D35*
%TO.C,J11*%
X114900000Y-111000000D03*
D33*
X114900000Y-113540000D03*
X114900000Y-116080000D03*
X114900000Y-118620000D03*
X114900000Y-121160000D03*
X114900000Y-123700000D03*
X114900000Y-126240000D03*
X114900000Y-128780000D03*
X114900000Y-131320000D03*
X114900000Y-133860000D03*
%TD*%
D35*
%TO.C,J10*%
X120900000Y-111000000D03*
D33*
X120900000Y-113540000D03*
X120900000Y-116080000D03*
X120900000Y-118620000D03*
X120900000Y-121160000D03*
X120900000Y-123700000D03*
X120900000Y-126240000D03*
X120900000Y-128780000D03*
X120900000Y-131320000D03*
X120900000Y-133860000D03*
%TD*%
D35*
%TO.C,J9*%
X56300000Y-111000000D03*
D33*
X56300000Y-113540000D03*
X56300000Y-116080000D03*
X56300000Y-118620000D03*
X56300000Y-121160000D03*
X56300000Y-123700000D03*
X56300000Y-126240000D03*
X56300000Y-128780000D03*
X56300000Y-131320000D03*
X56300000Y-133860000D03*
%TD*%
D35*
%TO.C,J14*%
X33000000Y-36500000D03*
D33*
X33000000Y-39040000D03*
X33000000Y-41580000D03*
X33000000Y-44120000D03*
X33000000Y-46660000D03*
X33000000Y-49200000D03*
X33000000Y-51740000D03*
X33000000Y-54280000D03*
X33000000Y-56820000D03*
X33000000Y-59360000D03*
%TD*%
D35*
%TO.C,J13*%
X144200000Y-36500000D03*
D33*
X144200000Y-39040000D03*
X144200000Y-41580000D03*
X144200000Y-44120000D03*
X144200000Y-46660000D03*
X144200000Y-49200000D03*
X144200000Y-51740000D03*
X144200000Y-54280000D03*
X144200000Y-56820000D03*
X144200000Y-59360000D03*
%TD*%
M02*
