%TF.GenerationSoftware,KiCad,Pcbnew,8.0.6*%
%TF.CreationDate,2024-12-03T18:47:33+00:00*%
%TF.ProjectId,pcb,7063622e-6b69-4636-9164-5f7063625858,rev?*%
%TF.SameCoordinates,Original*%
%TF.FileFunction,Paste,Top*%
%TF.FilePolarity,Positive*%
%FSLAX46Y46*%
G04 Gerber Fmt 4.6, Leading zero omitted, Abs format (unit mm)*
G04 Created by KiCad (PCBNEW 8.0.6) date 2024-12-03 18:47:33*
%MOMM*%
%LPD*%
G01*
G04 APERTURE LIST*
G04 Aperture macros list*
%AMRoundRect*
0 Rectangle with rounded corners*
0 $1 Rounding radius*
0 $2 $3 $4 $5 $6 $7 $8 $9 X,Y pos of 4 corners*
0 Add a 4 corners polygon primitive as box body*
4,1,4,$2,$3,$4,$5,$6,$7,$8,$9,$2,$3,0*
0 Add four circle primitives for the rounded corners*
1,1,$1+$1,$2,$3*
1,1,$1+$1,$4,$5*
1,1,$1+$1,$6,$7*
1,1,$1+$1,$8,$9*
0 Add four rect primitives between the rounded corners*
20,1,$1+$1,$2,$3,$4,$5,0*
20,1,$1+$1,$4,$5,$6,$7,0*
20,1,$1+$1,$6,$7,$8,$9,0*
20,1,$1+$1,$8,$9,$2,$3,0*%
G04 Aperture macros list end*
%ADD10RoundRect,0.112500X0.187500X0.112500X-0.187500X0.112500X-0.187500X-0.112500X0.187500X-0.112500X0*%
%ADD11RoundRect,0.237500X0.287500X0.237500X-0.287500X0.237500X-0.287500X-0.237500X0.287500X-0.237500X0*%
%ADD12RoundRect,0.237500X-0.287500X-0.237500X0.287500X-0.237500X0.287500X0.237500X-0.287500X0.237500X0*%
%ADD13RoundRect,0.150000X-0.825000X-0.150000X0.825000X-0.150000X0.825000X0.150000X-0.825000X0.150000X0*%
%ADD14RoundRect,0.375000X-0.375000X0.625000X-0.375000X-0.625000X0.375000X-0.625000X0.375000X0.625000X0*%
%ADD15RoundRect,0.500000X-1.400000X0.500000X-1.400000X-0.500000X1.400000X-0.500000X1.400000X0.500000X0*%
%ADD16RoundRect,0.225000X-0.225000X-0.250000X0.225000X-0.250000X0.225000X0.250000X-0.225000X0.250000X0*%
%ADD17RoundRect,0.200000X0.200000X-0.250000X0.200000X0.250000X-0.200000X0.250000X-0.200000X-0.250000X0*%
%ADD18RoundRect,0.200000X0.250000X0.200000X-0.250000X0.200000X-0.250000X-0.200000X0.250000X-0.200000X0*%
G04 APERTURE END LIST*
D10*
%TO.C,D4*%
X34600000Y-96900000D03*
X32500000Y-96900000D03*
%TD*%
%TO.C,D6*%
X34600000Y-89500000D03*
X32500000Y-89500000D03*
%TD*%
D11*
%TO.C,R18*%
X111100000Y-65800000D03*
X109350000Y-65800000D03*
%TD*%
D12*
%TO.C,R21*%
X135250000Y-133883000D03*
X137000000Y-133883000D03*
%TD*%
D13*
%TO.C,U6*%
X133425000Y-64695000D03*
X133425000Y-65965000D03*
X133425000Y-67235000D03*
X133425000Y-68505000D03*
X138375000Y-68505000D03*
X138375000Y-67235000D03*
X138375000Y-65965000D03*
X138375000Y-64695000D03*
%TD*%
D11*
%TO.C,R20*%
X132175000Y-134100000D03*
X130425000Y-134100000D03*
%TD*%
D14*
%TO.C,U7*%
X137000000Y-112250000D03*
X134700000Y-112250000D03*
D15*
X134700000Y-118550000D03*
D14*
X132400000Y-112250000D03*
%TD*%
D16*
%TO.C,C3*%
X142525000Y-64100000D03*
X144075000Y-64100000D03*
%TD*%
D10*
%TO.C,D5*%
X34600000Y-93200000D03*
X32500000Y-93200000D03*
%TD*%
D12*
%TO.C,R22*%
X135250000Y-136400000D03*
X137000000Y-136400000D03*
%TD*%
D17*
%TO.C,Q1*%
X93700000Y-67400000D03*
X95600000Y-67400000D03*
X94650000Y-65400000D03*
%TD*%
D18*
%TO.C,Q3*%
X126900000Y-135050000D03*
X126900000Y-133150000D03*
X124900000Y-134100000D03*
%TD*%
%TO.C,Q2*%
X123600000Y-67000000D03*
X123600000Y-65100000D03*
X121600000Y-66050000D03*
%TD*%
D10*
%TO.C,D3*%
X34600000Y-100600000D03*
X32500000Y-100600000D03*
%TD*%
D16*
%TO.C,C20*%
X135325000Y-109100000D03*
X136875000Y-109100000D03*
%TD*%
D11*
%TO.C,R19*%
X128575000Y-67000000D03*
X126825000Y-67000000D03*
%TD*%
M02*
