%TF.GenerationSoftware,KiCad,Pcbnew,8.0.7*%
%TF.CreationDate,2024-12-29T00:43:23+00:00*%
%TF.ProjectId,pcb,7063622e-6b69-4636-9164-5f7063625858,2.0*%
%TF.SameCoordinates,Original*%
%TF.FileFunction,Paste,Bot*%
%TF.FilePolarity,Positive*%
%FSLAX46Y46*%
G04 Gerber Fmt 4.6, Leading zero omitted, Abs format (unit mm)*
G04 Created by KiCad (PCBNEW 8.0.7) date 2024-12-29 00:43:23*
%MOMM*%
%LPD*%
G01*
G04 APERTURE LIST*
G04 Aperture macros list*
%AMRoundRect*
0 Rectangle with rounded corners*
0 $1 Rounding radius*
0 $2 $3 $4 $5 $6 $7 $8 $9 X,Y pos of 4 corners*
0 Add a 4 corners polygon primitive as box body*
4,1,4,$2,$3,$4,$5,$6,$7,$8,$9,$2,$3,0*
0 Add four circle primitives for the rounded corners*
1,1,$1+$1,$2,$3*
1,1,$1+$1,$4,$5*
1,1,$1+$1,$6,$7*
1,1,$1+$1,$8,$9*
0 Add four rect primitives between the rounded corners*
20,1,$1+$1,$2,$3,$4,$5,0*
20,1,$1+$1,$4,$5,$6,$7,0*
20,1,$1+$1,$6,$7,$8,$9,0*
20,1,$1+$1,$8,$9,$2,$3,0*%
G04 Aperture macros list end*
%ADD10RoundRect,0.237500X-0.287500X-0.237500X0.287500X-0.237500X0.287500X0.237500X-0.287500X0.237500X0*%
%ADD11RoundRect,0.237500X0.287500X0.237500X-0.287500X0.237500X-0.287500X-0.237500X0.287500X-0.237500X0*%
%ADD12RoundRect,0.150000X0.725000X0.150000X-0.725000X0.150000X-0.725000X-0.150000X0.725000X-0.150000X0*%
%ADD13RoundRect,0.225000X0.225000X0.250000X-0.225000X0.250000X-0.225000X-0.250000X0.225000X-0.250000X0*%
%ADD14RoundRect,0.237500X0.237500X-0.287500X0.237500X0.287500X-0.237500X0.287500X-0.237500X-0.287500X0*%
%ADD15RoundRect,0.225000X0.250000X-0.225000X0.250000X0.225000X-0.250000X0.225000X-0.250000X-0.225000X0*%
%ADD16RoundRect,0.225000X-0.225000X-0.250000X0.225000X-0.250000X0.225000X0.250000X-0.225000X0.250000X0*%
%ADD17RoundRect,0.250000X1.500000X0.550000X-1.500000X0.550000X-1.500000X-0.550000X1.500000X-0.550000X0*%
%ADD18RoundRect,0.150000X-0.150000X0.825000X-0.150000X-0.825000X0.150000X-0.825000X0.150000X0.825000X0*%
%ADD19RoundRect,0.250000X-1.500000X-0.550000X1.500000X-0.550000X1.500000X0.550000X-1.500000X0.550000X0*%
%ADD20RoundRect,0.150000X-0.825000X-0.150000X0.825000X-0.150000X0.825000X0.150000X-0.825000X0.150000X0*%
%ADD21RoundRect,0.200000X0.200000X-0.250000X0.200000X0.250000X-0.200000X0.250000X-0.200000X-0.250000X0*%
%ADD22RoundRect,0.225000X-0.250000X0.225000X-0.250000X-0.225000X0.250000X-0.225000X0.250000X0.225000X0*%
G04 APERTURE END LIST*
D10*
%TO.C,R13*%
X98650000Y-52600000D03*
X100400000Y-52600000D03*
%TD*%
D11*
%TO.C,R14*%
X129775000Y-50700000D03*
X128025000Y-50700000D03*
%TD*%
D10*
%TO.C,R29*%
X70625000Y-73800000D03*
X72375000Y-73800000D03*
%TD*%
D12*
%TO.C,U4*%
X113975000Y-51895000D03*
X113975000Y-53165000D03*
X113975000Y-54435000D03*
X113975000Y-55705000D03*
X108825000Y-55705000D03*
X108825000Y-54435000D03*
X108825000Y-53165000D03*
X108825000Y-51895000D03*
%TD*%
D13*
%TO.C,C7*%
X138675000Y-50000000D03*
X137125000Y-50000000D03*
%TD*%
D11*
%TO.C,R9*%
X127875000Y-37900000D03*
X126125000Y-37900000D03*
%TD*%
D10*
%TO.C,R30*%
X70625000Y-70800000D03*
X72375000Y-70800000D03*
%TD*%
%TO.C,R19*%
X116225000Y-89800000D03*
X117975000Y-89800000D03*
%TD*%
D14*
%TO.C,R12*%
X120800000Y-52475000D03*
X120800000Y-50725000D03*
%TD*%
D11*
%TO.C,R38*%
X50475000Y-70800000D03*
X48725000Y-70800000D03*
%TD*%
D15*
%TO.C,C12*%
X117900000Y-52300000D03*
X117900000Y-50750000D03*
%TD*%
D11*
%TO.C,R17*%
X100400000Y-49600000D03*
X98650000Y-49600000D03*
%TD*%
D16*
%TO.C,C15*%
X108125000Y-48000000D03*
X109675000Y-48000000D03*
%TD*%
D17*
%TO.C,C11*%
X101400000Y-130700000D03*
X96000000Y-130700000D03*
%TD*%
D10*
%TO.C,R8*%
X98650000Y-37600000D03*
X100400000Y-37600000D03*
%TD*%
D11*
%TO.C,R2*%
X122875000Y-43600000D03*
X121125000Y-43600000D03*
%TD*%
D17*
%TO.C,C10*%
X101300000Y-121100000D03*
X95900000Y-121100000D03*
%TD*%
D10*
%TO.C,R16*%
X124025000Y-50700000D03*
X125775000Y-50700000D03*
%TD*%
D11*
%TO.C,R27*%
X72375000Y-79800000D03*
X70625000Y-79800000D03*
%TD*%
%TO.C,R36*%
X50375000Y-76800000D03*
X48625000Y-76800000D03*
%TD*%
D10*
%TO.C,R6*%
X121225000Y-37900000D03*
X122975000Y-37900000D03*
%TD*%
D13*
%TO.C,C14*%
X105175000Y-40800000D03*
X103625000Y-40800000D03*
%TD*%
D11*
%TO.C,R41*%
X112500000Y-89700000D03*
X110750000Y-89700000D03*
%TD*%
%TO.C,R18*%
X117975000Y-80000000D03*
X116225000Y-80000000D03*
%TD*%
%TO.C,R10*%
X125775000Y-53700000D03*
X124025000Y-53700000D03*
%TD*%
%TO.C,R28*%
X72375000Y-76800000D03*
X70625000Y-76800000D03*
%TD*%
D10*
%TO.C,R32*%
X38125000Y-73800000D03*
X39875000Y-73800000D03*
%TD*%
%TO.C,R5*%
X98650000Y-46600000D03*
X100400000Y-46600000D03*
%TD*%
D18*
%TO.C,U6*%
X131700000Y-82950000D03*
X132970000Y-82950000D03*
X134240000Y-82950000D03*
X135510000Y-82950000D03*
X135510000Y-87900000D03*
X134240000Y-87900000D03*
X132970000Y-87900000D03*
X131700000Y-87900000D03*
%TD*%
D10*
%TO.C,R31*%
X38125000Y-70800000D03*
X39875000Y-70800000D03*
%TD*%
%TO.C,R7*%
X98650000Y-40600000D03*
X100400000Y-40600000D03*
%TD*%
D11*
%TO.C,R40*%
X123775000Y-80000000D03*
X122025000Y-80000000D03*
%TD*%
%TO.C,R23*%
X82775000Y-70800000D03*
X81025000Y-70800000D03*
%TD*%
%TO.C,R11*%
X100400000Y-55600000D03*
X98650000Y-55600000D03*
%TD*%
D13*
%TO.C,C6*%
X138675000Y-46500000D03*
X137125000Y-46500000D03*
%TD*%
D19*
%TO.C,C9*%
X133400000Y-56300000D03*
X138800000Y-56300000D03*
%TD*%
D20*
%TO.C,U9*%
X40525000Y-59445000D03*
X40525000Y-58175000D03*
X40525000Y-56905000D03*
X40525000Y-55635000D03*
X40525000Y-54365000D03*
X40525000Y-53095000D03*
X40525000Y-51825000D03*
X40525000Y-50555000D03*
X45475000Y-50555000D03*
X45475000Y-51825000D03*
X45475000Y-53095000D03*
X45475000Y-54365000D03*
X45475000Y-55635000D03*
X45475000Y-56905000D03*
X45475000Y-58175000D03*
X45475000Y-59445000D03*
%TD*%
D11*
%TO.C,R35*%
X50400000Y-79800000D03*
X48650000Y-79800000D03*
%TD*%
D10*
%TO.C,R4*%
X121225000Y-40700000D03*
X122975000Y-40700000D03*
%TD*%
%TO.C,R34*%
X38125000Y-79800000D03*
X39875000Y-79800000D03*
%TD*%
D13*
%TO.C,C16*%
X114375000Y-48100000D03*
X112825000Y-48100000D03*
%TD*%
D21*
%TO.C,Q3*%
X123800000Y-86000000D03*
X121900000Y-86000000D03*
X122850000Y-84000000D03*
%TD*%
D10*
%TO.C,R3*%
X98650000Y-43600000D03*
X100400000Y-43600000D03*
%TD*%
%TO.C,R42*%
X110625000Y-80000000D03*
X112375000Y-80000000D03*
%TD*%
D21*
%TO.C,Q2*%
X118000000Y-86000000D03*
X116100000Y-86000000D03*
X117050000Y-84000000D03*
%TD*%
D11*
%TO.C,R37*%
X50475000Y-73800000D03*
X48725000Y-73800000D03*
%TD*%
D10*
%TO.C,R33*%
X38125000Y-76800000D03*
X39875000Y-76800000D03*
%TD*%
D21*
%TO.C,Q4*%
X112500000Y-86000000D03*
X110600000Y-86000000D03*
X111550000Y-84000000D03*
%TD*%
D11*
%TO.C,R15*%
X100400000Y-58600000D03*
X98650000Y-58600000D03*
%TD*%
D12*
%TO.C,U3*%
X113850000Y-41400000D03*
X113850000Y-42670000D03*
X113850000Y-43940000D03*
X113850000Y-45210000D03*
X108700000Y-45210000D03*
X108700000Y-43940000D03*
X108700000Y-42670000D03*
X108700000Y-41400000D03*
%TD*%
D13*
%TO.C,C13*%
X105175000Y-53500000D03*
X103625000Y-53500000D03*
%TD*%
D22*
%TO.C,C17*%
X117900000Y-54600000D03*
X117900000Y-56150000D03*
%TD*%
D20*
%TO.C,U8*%
X73125000Y-59445000D03*
X73125000Y-58175000D03*
X73125000Y-56905000D03*
X73125000Y-55635000D03*
X73125000Y-54365000D03*
X73125000Y-53095000D03*
X73125000Y-51825000D03*
X73125000Y-50555000D03*
X78075000Y-50555000D03*
X78075000Y-51825000D03*
X78075000Y-53095000D03*
X78075000Y-54365000D03*
X78075000Y-55635000D03*
X78075000Y-56905000D03*
X78075000Y-58175000D03*
X78075000Y-59445000D03*
%TD*%
D11*
%TO.C,R39*%
X128975000Y-82300000D03*
X127225000Y-82300000D03*
%TD*%
%TO.C,R25*%
X82750000Y-76800000D03*
X81000000Y-76800000D03*
%TD*%
%TO.C,R26*%
X82775000Y-79800000D03*
X81025000Y-79800000D03*
%TD*%
%TO.C,R24*%
X82775000Y-73800000D03*
X81025000Y-73800000D03*
%TD*%
D13*
%TO.C,C3*%
X128875000Y-87900000D03*
X127325000Y-87900000D03*
%TD*%
D19*
%TO.C,C8*%
X133400000Y-39400000D03*
X138800000Y-39400000D03*
%TD*%
M02*
