%TF.GenerationSoftware,KiCad,Pcbnew,8.0.6*%
%TF.CreationDate,2024-12-03T18:47:33+00:00*%
%TF.ProjectId,pcb,7063622e-6b69-4636-9164-5f7063625858,rev?*%
%TF.SameCoordinates,Original*%
%TF.FileFunction,Soldermask,Bot*%
%TF.FilePolarity,Negative*%
%FSLAX46Y46*%
G04 Gerber Fmt 4.6, Leading zero omitted, Abs format (unit mm)*
G04 Created by KiCad (PCBNEW 8.0.6) date 2024-12-03 18:47:33*
%MOMM*%
%LPD*%
G01*
G04 APERTURE LIST*
G04 Aperture macros list*
%AMRoundRect*
0 Rectangle with rounded corners*
0 $1 Rounding radius*
0 $2 $3 $4 $5 $6 $7 $8 $9 X,Y pos of 4 corners*
0 Add a 4 corners polygon primitive as box body*
4,1,4,$2,$3,$4,$5,$6,$7,$8,$9,$2,$3,0*
0 Add four circle primitives for the rounded corners*
1,1,$1+$1,$2,$3*
1,1,$1+$1,$4,$5*
1,1,$1+$1,$6,$7*
1,1,$1+$1,$8,$9*
0 Add four rect primitives between the rounded corners*
20,1,$1+$1,$2,$3,$4,$5,0*
20,1,$1+$1,$4,$5,$6,$7,0*
20,1,$1+$1,$6,$7,$8,$9,0*
20,1,$1+$1,$8,$9,$2,$3,0*%
G04 Aperture macros list end*
%ADD10C,3.000000*%
%ADD11C,2.600000*%
%ADD12R,2.000000X2.000000*%
%ADD13C,2.000000*%
%ADD14R,2.000000X3.200000*%
%ADD15C,3.240000*%
%ADD16R,1.800000X1.800000*%
%ADD17C,1.800000*%
%ADD18RoundRect,0.250000X0.600000X-0.600000X0.600000X0.600000X-0.600000X0.600000X-0.600000X-0.600000X0*%
%ADD19C,1.700000*%
%ADD20C,1.524000*%
%ADD21R,2.200000X2.200000*%
%ADD22O,2.200000X2.200000*%
%ADD23O,1.800000X1.800000*%
%ADD24O,1.500000X1.500000*%
%ADD25O,1.700000X1.700000*%
%ADD26R,1.700000X1.700000*%
%ADD27C,2.500000*%
%ADD28C,1.500000*%
%ADD29R,1.500000X1.500000*%
%ADD30O,3.000000X3.900000*%
%ADD31RoundRect,0.250000X0.550000X-1.500000X0.550000X1.500000X-0.550000X1.500000X-0.550000X-1.500000X0*%
%ADD32RoundRect,0.250000X-1.500000X-0.550000X1.500000X-0.550000X1.500000X0.550000X-1.500000X0.550000X0*%
%ADD33RoundRect,0.237500X-0.287500X-0.237500X0.287500X-0.237500X0.287500X0.237500X-0.287500X0.237500X0*%
%ADD34RoundRect,0.225000X-0.250000X0.225000X-0.250000X-0.225000X0.250000X-0.225000X0.250000X0.225000X0*%
%ADD35RoundRect,0.237500X0.287500X0.237500X-0.287500X0.237500X-0.287500X-0.237500X0.287500X-0.237500X0*%
%ADD36RoundRect,0.237500X0.237500X-0.287500X0.237500X0.287500X-0.237500X0.287500X-0.237500X-0.287500X0*%
%ADD37RoundRect,0.250000X1.500000X0.550000X-1.500000X0.550000X-1.500000X-0.550000X1.500000X-0.550000X0*%
%ADD38RoundRect,0.225000X0.225000X0.250000X-0.225000X0.250000X-0.225000X-0.250000X0.225000X-0.250000X0*%
%ADD39RoundRect,0.150000X0.725000X0.150000X-0.725000X0.150000X-0.725000X-0.150000X0.725000X-0.150000X0*%
%ADD40RoundRect,0.237500X-0.237500X0.287500X-0.237500X-0.287500X0.237500X-0.287500X0.237500X0.287500X0*%
%ADD41RoundRect,0.150000X0.825000X0.150000X-0.825000X0.150000X-0.825000X-0.150000X0.825000X-0.150000X0*%
%ADD42RoundRect,0.225000X-0.225000X-0.250000X0.225000X-0.250000X0.225000X0.250000X-0.225000X0.250000X0*%
G04 APERTURE END LIST*
D10*
%TO.C,J2*%
X48500000Y-133000000D03*
D11*
X48500000Y-126520000D03*
X48500000Y-129620000D03*
X48500000Y-137920000D03*
%TD*%
D12*
%TO.C,SW3*%
X56800000Y-62900000D03*
D13*
X61800000Y-62900000D03*
X59300000Y-62900000D03*
D14*
X53700000Y-55400000D03*
X64900000Y-55400000D03*
D13*
X61800000Y-48400000D03*
X56800000Y-48400000D03*
%TD*%
D10*
%TO.C,J4*%
X81100000Y-133000000D03*
D11*
X81100000Y-126520000D03*
X81100000Y-129620000D03*
X81100000Y-137920000D03*
%TD*%
D15*
%TO.C,RV3*%
X64170000Y-94200000D03*
X54570000Y-94200000D03*
D16*
X61870000Y-86700000D03*
D17*
X59370000Y-86700000D03*
X56870000Y-86700000D03*
%TD*%
D15*
%TO.C,RV2*%
X70730000Y-36000000D03*
X80330000Y-36000000D03*
D16*
X73030000Y-43500000D03*
D17*
X75530000Y-43500000D03*
X78030000Y-43500000D03*
%TD*%
D10*
%TO.C,J5*%
X70100000Y-133000000D03*
D11*
X70100000Y-126520000D03*
X70100000Y-129620000D03*
X70100000Y-137920000D03*
%TD*%
D15*
%TO.C,RV4*%
X38130000Y-36000000D03*
X47730000Y-36000000D03*
D16*
X40430000Y-43500000D03*
D17*
X42930000Y-43500000D03*
X45430000Y-43500000D03*
%TD*%
D18*
%TO.C,J1*%
X129800000Y-127840000D03*
D19*
X129800000Y-125300000D03*
X132340000Y-127840000D03*
X132340000Y-125300000D03*
X134880000Y-127840000D03*
X134880000Y-125300000D03*
X137420000Y-127840000D03*
X137420000Y-125300000D03*
X139960000Y-127840000D03*
X139960000Y-125300000D03*
%TD*%
D20*
%TO.C,SW4*%
X38460000Y-94200000D03*
X41000000Y-94200000D03*
X43540000Y-94200000D03*
%TD*%
D16*
%TO.C,D7*%
X81100000Y-103000000D03*
D17*
X81100000Y-100460000D03*
%TD*%
D19*
%TO.C,U2*%
X122100000Y-35200000D03*
X119560000Y-35200000D03*
X117020000Y-35200000D03*
X114480000Y-35200000D03*
X111940000Y-35200000D03*
X109400000Y-35200000D03*
X109400000Y-60600000D03*
X111940000Y-60600000D03*
X114480000Y-60600000D03*
X117020000Y-60600000D03*
X119560000Y-60600000D03*
X122100000Y-60600000D03*
X132260000Y-50440000D03*
X132260000Y-47900000D03*
X132260000Y-45360000D03*
%TD*%
%TO.C,U5*%
X107320000Y-131360000D03*
X107320000Y-128820000D03*
X107320000Y-126280000D03*
X107320000Y-123740000D03*
X107320000Y-121200000D03*
X107320000Y-118660000D03*
X107320000Y-116120000D03*
X107320000Y-113580000D03*
X107320000Y-111040000D03*
X106920000Y-104910000D03*
X104380000Y-104910000D03*
X101840000Y-104910000D03*
X99300000Y-104910000D03*
X96760000Y-104910000D03*
X94220000Y-104910000D03*
%TD*%
D21*
%TO.C,D2*%
X127200000Y-118810000D03*
D22*
X127200000Y-111190000D03*
%TD*%
D23*
%TO.C,U1*%
X93570000Y-87915000D03*
D24*
X96600000Y-87615000D03*
X96600000Y-82765000D03*
D23*
X93570000Y-82465000D03*
D25*
X93440000Y-94080000D03*
X95980000Y-94080000D03*
D26*
X98520000Y-94080000D03*
D25*
X101060000Y-94080000D03*
X103600000Y-94080000D03*
X106140000Y-94080000D03*
X108680000Y-94080000D03*
D26*
X111220000Y-94080000D03*
D25*
X113760000Y-94080000D03*
X116300000Y-94080000D03*
X118840000Y-94080000D03*
X121380000Y-94080000D03*
D26*
X123920000Y-94080000D03*
D25*
X126460000Y-94080000D03*
X129000000Y-94080000D03*
X131540000Y-94080000D03*
X134080000Y-94080000D03*
D26*
X136620000Y-94080000D03*
D25*
X139160000Y-94080000D03*
X141700000Y-94080000D03*
X141700000Y-76300000D03*
X139160000Y-76300000D03*
D26*
X136620000Y-76300000D03*
D25*
X134080000Y-76300000D03*
X131540000Y-76300000D03*
X129000000Y-76300000D03*
X126460000Y-76300000D03*
D26*
X123920000Y-76300000D03*
D25*
X121380000Y-76300000D03*
X118840000Y-76300000D03*
X116300000Y-76300000D03*
X113760000Y-76300000D03*
D26*
X111220000Y-76300000D03*
D25*
X108680000Y-76300000D03*
X106140000Y-76300000D03*
X103600000Y-76300000D03*
X101060000Y-76300000D03*
D26*
X98520000Y-76300000D03*
D25*
X95980000Y-76300000D03*
X93440000Y-76300000D03*
X141470000Y-87730000D03*
D26*
X141470000Y-85190000D03*
D25*
X141470000Y-82650000D03*
%TD*%
D27*
%TO.C,SW1*%
X35000000Y-74800000D03*
X51000000Y-74800000D03*
D28*
X48000000Y-85050000D03*
X45500000Y-85050000D03*
X43000000Y-85050000D03*
X40500000Y-85050000D03*
X38000000Y-85050000D03*
X38000000Y-66750000D03*
X40500000Y-66750000D03*
X43000000Y-66750000D03*
X45500000Y-66750000D03*
X48000000Y-66750000D03*
%TD*%
D10*
%TO.C,J7*%
X70100000Y-113600000D03*
D11*
X70100000Y-120080000D03*
X70100000Y-116980000D03*
X70100000Y-108680000D03*
%TD*%
D10*
%TO.C,J6*%
X81100000Y-113600000D03*
D11*
X81100000Y-120080000D03*
X81100000Y-116980000D03*
X81100000Y-108680000D03*
%TD*%
D20*
%TO.C,SW2*%
X75060000Y-94200000D03*
X77600000Y-94200000D03*
X80140000Y-94200000D03*
%TD*%
D27*
%TO.C,SW5*%
X67600000Y-74800000D03*
X83600000Y-74800000D03*
D28*
X80600000Y-85050000D03*
X78100000Y-85050000D03*
X75600000Y-85050000D03*
X73100000Y-85050000D03*
X70600000Y-85050000D03*
X70600000Y-66750000D03*
X73100000Y-66750000D03*
X75600000Y-66750000D03*
X78100000Y-66750000D03*
X80600000Y-66750000D03*
%TD*%
D21*
%TO.C,D1*%
X143200000Y-111590000D03*
D22*
X143200000Y-119210000D03*
%TD*%
D10*
%TO.C,J3*%
X37500000Y-133000000D03*
D11*
X37500000Y-126520000D03*
X37500000Y-129620000D03*
X37500000Y-137920000D03*
%TD*%
D29*
%TO.C,RV1*%
X46150000Y-102700000D03*
D28*
X48150000Y-102700000D03*
X38150000Y-102700000D03*
X44150000Y-102700000D03*
X42150000Y-102700000D03*
X40150000Y-102700000D03*
D30*
X48950000Y-113700000D03*
X37350000Y-113700000D03*
%TD*%
D31*
%TO.C,C18*%
X143200000Y-106300000D03*
X143200000Y-100900000D03*
%TD*%
D32*
%TO.C,C8*%
X132100000Y-38800000D03*
X137500000Y-38800000D03*
%TD*%
D33*
%TO.C,R13*%
X96525000Y-48600000D03*
X98275000Y-48600000D03*
%TD*%
D34*
%TO.C,C14*%
X102700000Y-43750000D03*
X102700000Y-45300000D03*
%TD*%
D26*
%TO.C,J12*%
X62300000Y-111000000D03*
D25*
X62300000Y-113540000D03*
X62300000Y-116080000D03*
X62300000Y-118620000D03*
X62300000Y-121160000D03*
X62300000Y-123700000D03*
X62300000Y-126240000D03*
X62300000Y-128780000D03*
X62300000Y-131320000D03*
X62300000Y-133860000D03*
%TD*%
D26*
%TO.C,J16*%
X85600000Y-36500000D03*
D25*
X85600000Y-39040000D03*
X85600000Y-41580000D03*
X85600000Y-44120000D03*
X85600000Y-46660000D03*
X85600000Y-49200000D03*
X85600000Y-51740000D03*
X85600000Y-54280000D03*
X85600000Y-56820000D03*
X85600000Y-59360000D03*
%TD*%
D34*
%TO.C,C15*%
X102700000Y-52650000D03*
X102700000Y-54200000D03*
%TD*%
D35*
%TO.C,R10*%
X124075000Y-53800000D03*
X122325000Y-53800000D03*
%TD*%
D26*
%TO.C,J15*%
X91600000Y-36500000D03*
D25*
X91600000Y-39040000D03*
X91600000Y-41580000D03*
X91600000Y-44120000D03*
X91600000Y-46660000D03*
X91600000Y-49200000D03*
X91600000Y-51740000D03*
X91600000Y-54280000D03*
X91600000Y-56820000D03*
X91600000Y-59360000D03*
%TD*%
D36*
%TO.C,R24*%
X75600000Y-81775000D03*
X75600000Y-80025000D03*
%TD*%
D35*
%TO.C,R16*%
X109275000Y-49125000D03*
X107525000Y-49125000D03*
%TD*%
D37*
%TO.C,C19*%
X137200000Y-103500000D03*
X131800000Y-103500000D03*
%TD*%
D36*
%TO.C,R26*%
X70600000Y-81700000D03*
X70600000Y-79950000D03*
%TD*%
D35*
%TO.C,R17*%
X98275000Y-43800000D03*
X96525000Y-43800000D03*
%TD*%
D38*
%TO.C,C7*%
X116175000Y-39000000D03*
X114625000Y-39000000D03*
%TD*%
D39*
%TO.C,U3*%
X110975000Y-42720000D03*
X110975000Y-43990000D03*
X110975000Y-45260000D03*
X110975000Y-46530000D03*
X105825000Y-46530000D03*
X105825000Y-45260000D03*
X105825000Y-43990000D03*
X105825000Y-42720000D03*
%TD*%
D38*
%TO.C,C6*%
X120375000Y-39000000D03*
X118825000Y-39000000D03*
%TD*%
D26*
%TO.C,J11*%
X114900000Y-111000000D03*
D25*
X114900000Y-113540000D03*
X114900000Y-116080000D03*
X114900000Y-118620000D03*
X114900000Y-121160000D03*
X114900000Y-123700000D03*
X114900000Y-126240000D03*
X114900000Y-128780000D03*
X114900000Y-131320000D03*
X114900000Y-133860000D03*
%TD*%
D40*
%TO.C,R28*%
X73100000Y-69925000D03*
X73100000Y-71675000D03*
%TD*%
D39*
%TO.C,U4*%
X110875000Y-51620000D03*
X110875000Y-52890000D03*
X110875000Y-54160000D03*
X110875000Y-55430000D03*
X105725000Y-55430000D03*
X105725000Y-54160000D03*
X105725000Y-52890000D03*
X105725000Y-51620000D03*
%TD*%
D32*
%TO.C,C1*%
X111300000Y-103400000D03*
X116700000Y-103400000D03*
%TD*%
D36*
%TO.C,R23*%
X78100000Y-81775000D03*
X78100000Y-80025000D03*
%TD*%
D32*
%TO.C,C9*%
X131900000Y-56600000D03*
X137300000Y-56600000D03*
%TD*%
D26*
%TO.C,J10*%
X120900000Y-111000000D03*
D25*
X120900000Y-113540000D03*
X120900000Y-116080000D03*
X120900000Y-118620000D03*
X120900000Y-121160000D03*
X120900000Y-123700000D03*
X120900000Y-126240000D03*
X120900000Y-128780000D03*
X120900000Y-131320000D03*
X120900000Y-133860000D03*
%TD*%
D37*
%TO.C,C11*%
X100500000Y-131200000D03*
X95100000Y-131200000D03*
%TD*%
D36*
%TO.C,R25*%
X73100000Y-81775000D03*
X73100000Y-80025000D03*
%TD*%
D26*
%TO.C,J9*%
X56300000Y-111000000D03*
D25*
X56300000Y-113540000D03*
X56300000Y-116080000D03*
X56300000Y-118620000D03*
X56300000Y-121160000D03*
X56300000Y-123700000D03*
X56300000Y-126240000D03*
X56300000Y-128780000D03*
X56300000Y-131320000D03*
X56300000Y-133860000D03*
%TD*%
D33*
%TO.C,R8*%
X114525000Y-41400000D03*
X116275000Y-41400000D03*
%TD*%
D35*
%TO.C,R11*%
X98275000Y-51500000D03*
X96525000Y-51500000D03*
%TD*%
%TO.C,R12*%
X119875000Y-53800000D03*
X118125000Y-53800000D03*
%TD*%
D33*
%TO.C,R2*%
X127325000Y-46200000D03*
X129075000Y-46200000D03*
%TD*%
D35*
%TO.C,R1*%
X82475000Y-51800000D03*
X80725000Y-51800000D03*
%TD*%
D37*
%TO.C,C10*%
X100300000Y-120400000D03*
X94900000Y-120400000D03*
%TD*%
D32*
%TO.C,C2*%
X121700000Y-103400000D03*
X127100000Y-103400000D03*
%TD*%
D40*
%TO.C,R30*%
X78100000Y-69925000D03*
X78100000Y-71675000D03*
%TD*%
D33*
%TO.C,R6*%
X122225000Y-42800000D03*
X123975000Y-42800000D03*
%TD*%
D41*
%TO.C,U8*%
X62175000Y-71555000D03*
X62175000Y-72825000D03*
X62175000Y-74095000D03*
X62175000Y-75365000D03*
X62175000Y-76635000D03*
X62175000Y-77905000D03*
X62175000Y-79175000D03*
X62175000Y-80445000D03*
X57225000Y-80445000D03*
X57225000Y-79175000D03*
X57225000Y-77905000D03*
X57225000Y-76635000D03*
X57225000Y-75365000D03*
X57225000Y-74095000D03*
X57225000Y-72825000D03*
X57225000Y-71555000D03*
%TD*%
D33*
%TO.C,R5*%
X137125000Y-45400000D03*
X138875000Y-45400000D03*
%TD*%
D34*
%TO.C,C17*%
X114500000Y-45125000D03*
X114500000Y-46675000D03*
%TD*%
D40*
%TO.C,R29*%
X75600000Y-69925000D03*
X75600000Y-71675000D03*
%TD*%
D35*
%TO.C,R3*%
X138875000Y-49000000D03*
X137125000Y-49000000D03*
%TD*%
D26*
%TO.C,J14*%
X33000000Y-36500000D03*
D25*
X33000000Y-39040000D03*
X33000000Y-41580000D03*
X33000000Y-44120000D03*
X33000000Y-46660000D03*
X33000000Y-49200000D03*
X33000000Y-51740000D03*
X33000000Y-54280000D03*
X33000000Y-56820000D03*
X33000000Y-59360000D03*
%TD*%
D40*
%TO.C,R27*%
X70600000Y-69925000D03*
X70600000Y-71675000D03*
%TD*%
D35*
%TO.C,R4*%
X129075000Y-42800000D03*
X127325000Y-42800000D03*
%TD*%
D33*
%TO.C,R14*%
X122250000Y-56600000D03*
X124000000Y-56600000D03*
%TD*%
D26*
%TO.C,J13*%
X144200000Y-36500000D03*
D25*
X144200000Y-39040000D03*
X144200000Y-41580000D03*
X144200000Y-44120000D03*
X144200000Y-46660000D03*
X144200000Y-49200000D03*
X144200000Y-51740000D03*
X144200000Y-54280000D03*
X144200000Y-56820000D03*
X144200000Y-59360000D03*
%TD*%
D34*
%TO.C,C16*%
X114600000Y-53850000D03*
X114600000Y-55400000D03*
%TD*%
D33*
%TO.C,R9*%
X118725000Y-41400000D03*
X120475000Y-41400000D03*
%TD*%
D38*
%TO.C,C12*%
X119775000Y-56600000D03*
X118225000Y-56600000D03*
%TD*%
D33*
%TO.C,R7*%
X109125000Y-39000000D03*
X110875000Y-39000000D03*
%TD*%
D42*
%TO.C,C13*%
X96625000Y-46100000D03*
X98175000Y-46100000D03*
%TD*%
D35*
%TO.C,R15*%
X98275000Y-54400000D03*
X96525000Y-54400000D03*
%TD*%
M02*
