M48
; DRILL file {KiCad 8.0.7} date 2024-12-29T00:43:30+0000
; FORMAT={-:-/ absolute / inch / decimal}
; #@! TF.CreationDate,2024-12-29T00:43:30+00:00
; #@! TF.GenerationSoftware,Kicad,Pcbnew,8.0.7
; #@! TF.FileFunction,Plated,1,2,PTH
FMAT,2
INCH
; #@! TA.AperFunction,Plated,PTH,ViaDrill
T1C0.0118
; #@! TA.AperFunction,Plated,PTH,ComponentDrill
T2C0.0300
; #@! TA.AperFunction,Plated,PTH,ComponentDrill
T3C0.0354
; #@! TA.AperFunction,Plated,PTH,ComponentDrill
T4C0.0394
; #@! TA.AperFunction,Plated,PTH,ComponentDrill
T5C0.0402
; #@! TA.AperFunction,Plated,PTH,ComponentDrill
T6C0.0433
; #@! TA.AperFunction,Plated,PTH,ComponentDrill
T7C0.0551
; #@! TA.AperFunction,Plated,PTH,ComponentDrill
T8C0.0591
; #@! TA.AperFunction,Plated,PTH,ComponentDrill
T9C0.0630
; #@! TA.AperFunction,Plated,PTH,ComponentDrill
T10C0.0709
; #@! TA.AperFunction,Plated,PTH,ComponentDrill
T11C0.0787
; #@! TA.AperFunction,Plated,PTH,ComponentDrill
T12C0.1181
%
G90
G05
T1
X1.2434Y-4.7669
X1.5112Y-4.6195
X1.6112Y-3.0433
X1.6272Y-2.9838
X1.733Y-4.7827
X1.843Y-2.9947
X1.8691Y-3.1169
X1.9045Y-2.337
X1.9747Y-4.729
X2.0048Y-5.0177
X2.0353Y-5.0833
X2.0592Y-1.6653
X2.1409Y-1.778
X2.1594Y-2.2969
X2.1708Y-5.3437
X2.1841Y-1.5875
X2.3702Y-4.9095
X2.5039Y-1.637
X2.7158Y-5.3176
X2.7732Y-2.8526
X2.8478Y-2.5289
X2.8526Y-1.8202
X2.8805Y-2.9926
X3.0945Y-2.748
X3.1456Y-2.1841
X3.3949Y-2.1841
X3.4541Y-3.9327
X3.5479Y-1.3858
X3.5479Y-2.6429
X3.5844Y-3.5086
X3.6087Y-4.6183
X3.6285Y-4.917
X3.6527Y-5.1177
X3.7312Y-2.6636
X3.8334Y-2.2146
X3.8839Y-1.6776
X3.9528Y-1.7897
X3.9947Y-1.7007
X4.0787Y-2.3858
X4.1474Y-3.8285
X4.1787Y-2.2387
X4.3327Y-4.0122
X4.3341Y-1.7356
X4.3676Y-1.937
X4.4787Y-2.4395
X4.4795Y-3.527
X4.561Y-2.2911
X4.5758Y-3.0573
X4.6321Y-3.0994
X4.6871Y-3.5799
X4.7083Y-3.5533
X4.7786Y-3.527
X4.8052Y-1.5354
X4.8281Y-3.4589
X4.8375Y-2.3155
X4.9037Y-2.2146
X4.9221Y-1.5039
X4.9326Y-2.2649
X4.9537Y-1.437
X4.9724Y-3.9724
X4.9867Y-2.8792
X5.0512Y-2.2146
X5.1181Y-4.5225
X5.1253Y-4.4154
X5.1294Y-3.196
X5.1417Y-4.8547
X5.185Y-3.1841
X5.26Y-3.1264
X5.3547Y-4.0359
X5.3787Y-2.5071
X5.425Y-2.3155
X5.4291Y-1.7007
X5.4291Y-3.4134
X5.4792Y-1.637
X5.5673Y-1.6122
T2
X1.5142Y-3.7087
X1.6142Y-3.7087
X1.7142Y-3.7087
X2.9551Y-3.7087
X3.0551Y-3.7087
X3.1551Y-3.7087
T3
X1.376Y-2.748
X1.376Y-2.8465
X1.376Y-2.9449
X1.376Y-3.0433
X1.376Y-3.1417
X2.0965Y-2.748
X2.0965Y-2.8465
X2.0965Y-2.9449
X2.0965Y-3.0433
X2.0965Y-3.1417
X2.6594Y-2.748
X2.6594Y-2.8465
X2.6594Y-2.9449
X2.6594Y-3.0433
X2.6594Y-3.1417
X3.2465Y-4.0945
X3.3465Y-4.0945
X3.3799Y-2.748
X3.3799Y-2.8465
X3.3799Y-2.9449
X3.3799Y-3.0433
X3.3799Y-3.1417
T4
X1.3386Y-1.437
X1.3386Y-1.537
X1.3386Y-1.637
X1.3386Y-1.737
X1.3386Y-1.837
X1.3386Y-1.937
X1.3386Y-2.037
X1.3386Y-2.137
X1.3386Y-2.237
X1.3386Y-2.337
X1.4902Y-4.878
X1.5689Y-4.878
X1.5917Y-1.7126
X1.6476Y-4.878
X1.6902Y-1.7126
X1.7264Y-4.878
X1.7886Y-1.7126
X1.8051Y-4.878
X1.8839Y-4.878
X2.2165Y-4.3701
X2.2165Y-4.4701
X2.2165Y-4.5701
X2.2165Y-4.6701
X2.2165Y-4.7701
X2.2165Y-4.8701
X2.2165Y-4.9701
X2.2165Y-5.0701
X2.2165Y-5.1701
X2.2165Y-5.2701
X2.2335Y-4.0039
X2.2362Y-1.9055
X2.2362Y-2.4764
X2.3319Y-4.0039
X2.3346Y-2.4764
X2.4303Y-4.0039
X2.4331Y-1.9055
X2.4331Y-2.4764
X2.4528Y-4.3701
X2.4528Y-4.4701
X2.4528Y-4.5701
X2.4528Y-4.6701
X2.4528Y-4.7701
X2.4528Y-4.8701
X2.4528Y-4.9701
X2.4528Y-5.0701
X2.4528Y-5.1701
X2.4528Y-5.2701
X2.8752Y-1.7126
X2.9736Y-1.7126
X3.072Y-1.7126
X3.3307Y-1.437
X3.3307Y-1.537
X3.3307Y-1.637
X3.3307Y-1.737
X3.3307Y-1.837
X3.3307Y-1.937
X3.3307Y-2.037
X3.3307Y-2.137
X3.3307Y-2.237
X3.3307Y-2.337
X3.6457Y-1.437
X3.6457Y-1.537
X3.6457Y-1.637
X3.6457Y-1.737
X3.6457Y-1.837
X3.6457Y-1.937
X3.6457Y-2.037
X3.6457Y-2.137
X3.6457Y-2.237
X3.6457Y-2.337
X3.7094Y-4.1303
X3.8094Y-4.1303
X3.9094Y-4.1303
X4.0094Y-4.1303
X4.1094Y-4.1303
X4.2094Y-4.1303
X4.2252Y-4.3717
X4.2252Y-4.4717
X4.2252Y-4.5717
X4.2252Y-4.6717
X4.2252Y-4.7717
X4.2252Y-4.8717
X4.2252Y-4.9717
X4.2252Y-5.0717
X4.2252Y-5.1717
X4.3071Y-1.3858
X4.3071Y-2.3858
X4.4071Y-1.3858
X4.4071Y-2.3858
X4.5071Y-1.3858
X4.5071Y-2.3858
X4.5236Y-4.3701
X4.5236Y-4.4701
X4.5236Y-4.5701
X4.5236Y-4.6701
X4.5236Y-4.7701
X4.5236Y-4.8701
X4.5236Y-4.9701
X4.5236Y-5.0701
X4.5236Y-5.1701
X4.5236Y-5.2701
X4.6071Y-1.3858
X4.6071Y-2.3858
X4.7071Y-1.3858
X4.7071Y-2.3858
X4.7598Y-4.3701
X4.7598Y-4.4701
X4.7598Y-4.5701
X4.7598Y-4.6701
X4.7598Y-4.7701
X4.7598Y-4.8701
X4.7598Y-4.9701
X4.7598Y-5.0701
X4.7598Y-5.1701
X4.7598Y-5.2701
X4.8071Y-1.3858
X4.8071Y-2.3858
X5.1102Y-4.9
X5.1102Y-5.0
X5.2071Y-1.7858
X5.2071Y-1.8858
X5.2071Y-1.9858
X5.2102Y-4.9
X5.2102Y-5.0
X5.3102Y-4.9
X5.3102Y-5.0
X5.4102Y-4.9
X5.4102Y-5.0
X5.5102Y-4.9
X5.5102Y-5.0
X5.6378Y-1.437
X5.6378Y-1.537
X5.6378Y-1.637
X5.6378Y-1.737
X5.6378Y-1.837
X5.6378Y-1.937
X5.6378Y-2.037
X5.6378Y-2.137
X5.6378Y-2.237
X5.6378Y-2.337
T5
X3.6787Y-3.0039
X3.6787Y-3.7039
X3.7787Y-3.0039
X3.7787Y-3.7039
X3.8787Y-3.0039
X3.8787Y-3.7039
X3.9787Y-3.0039
X3.9787Y-3.7039
X4.0787Y-3.0039
X4.0787Y-3.7039
X4.1787Y-3.0039
X4.1787Y-3.7039
X4.2787Y-3.0039
X4.2787Y-3.7039
X4.3787Y-3.0039
X4.3787Y-3.7039
X4.4787Y-3.0039
X4.4787Y-3.7039
X4.5787Y-3.0039
X4.5787Y-3.7039
X4.6787Y-3.0039
X4.6787Y-3.7039
X4.7787Y-3.0039
X4.7787Y-3.7039
X4.8787Y-3.0039
X4.8787Y-3.7039
X4.9787Y-3.0039
X4.9787Y-3.7039
X5.0787Y-3.0039
X5.0787Y-3.7039
X5.1787Y-3.0039
X5.1787Y-3.7039
X5.2787Y-3.0039
X5.2787Y-3.7039
X5.3787Y-3.0039
X5.3787Y-3.7039
X5.4787Y-3.0039
X5.4787Y-3.7039
X5.5697Y-3.2539
X5.5697Y-3.3539
X5.5697Y-3.4539
X5.5787Y-3.0039
X5.5787Y-3.7039
T6
X4.9882Y-4.3317
X4.9882Y-4.6317
X5.6457Y-4.3264
X5.6457Y-4.6264
T7
X1.4764Y-4.9811
X1.9094Y-4.9811
X2.7598Y-4.7039
X2.7598Y-4.9811
X3.1929Y-4.7039
X3.1929Y-4.9811
T9
X1.4764Y-5.1031
X1.4764Y-5.4299
X1.9094Y-5.1031
X1.9094Y-5.4299
X2.7598Y-4.2551
X2.7598Y-4.5819
X2.7598Y-5.1031
X2.7598Y-5.4299
X3.1929Y-4.2551
X3.1929Y-4.5819
X3.1929Y-5.1031
X3.1929Y-5.4299
T10
X1.5012Y-1.4173
X1.8791Y-1.4173
X2.1429Y-3.7087
X2.5209Y-3.7087
X2.7846Y-1.4173
X3.1626Y-1.4173
T11
X1.6929Y-2.6299
X1.6929Y-3.2598
X2.9764Y-2.6299
X2.9764Y-3.2598
T12
X1.4764Y-5.2362
X1.9094Y-5.2362
X2.7598Y-4.4488
X2.7598Y-5.2362
X3.1929Y-4.4488
X3.1929Y-5.2362
T8
G00X2.1142Y-2.2067
M15
G01X2.1142Y-2.1555
M16
G05
G00X2.5551Y-2.2067
M15
G01X2.5551Y-2.1555
M16
G05
T11
G00X1.4587Y-4.4272
M15
G01X1.4587Y-4.4626
M16
G05
G00X1.9154Y-4.4272
M15
G01X1.9154Y-4.4626
M16
G05
M30
