M48
; DRILL file {KiCad 8.0.7} date 2025-01-02T18:20:04+0000
; FORMAT={-:-/ absolute / inch / decimal}
; #@! TF.CreationDate,2025-01-02T18:20:04+00:00
; #@! TF.GenerationSoftware,Kicad,Pcbnew,8.0.7
; #@! TF.FileFunction,Plated,1,2,PTH
FMAT,2
INCH
; #@! TA.AperFunction,Plated,PTH,ViaDrill
T1C0.0118
; #@! TA.AperFunction,Plated,PTH,ComponentDrill
T2C0.0197
; #@! TA.AperFunction,Plated,PTH,ComponentDrill
T3C0.0300
; #@! TA.AperFunction,Plated,PTH,ComponentDrill
T4C0.0354
; #@! TA.AperFunction,Plated,PTH,ComponentDrill
T5C0.0394
; #@! TA.AperFunction,Plated,PTH,ComponentDrill
T6C0.0402
; #@! TA.AperFunction,Plated,PTH,ComponentDrill
T7C0.0433
; #@! TA.AperFunction,Plated,PTH,ComponentDrill
T8C0.0551
; #@! TA.AperFunction,Plated,PTH,ComponentDrill
T9C0.0591
; #@! TA.AperFunction,Plated,PTH,ComponentDrill
T10C0.0630
; #@! TA.AperFunction,Plated,PTH,ComponentDrill
T11C0.0709
; #@! TA.AperFunction,Plated,PTH,ComponentDrill
T12C0.0787
; #@! TA.AperFunction,Plated,PTH,ComponentDrill
T13C0.1181
%
G90
G05
T1
X1.2434Y-4.7669
X1.5112Y-4.6195
X1.6112Y-3.0433
X1.6272Y-2.9838
X1.733Y-4.7827
X1.8542Y-3.0951
X1.9045Y-2.337
X1.9828Y-4.729
X2.0056Y-5.02
X2.022Y-5.0672
X2.0592Y-1.6653
X2.1409Y-1.778
X2.1594Y-2.2969
X2.1708Y-5.3437
X2.1841Y-1.5875
X2.3702Y-4.9095
X2.5039Y-1.637
X2.7158Y-5.3176
X2.7411Y-2.4737
X2.7732Y-2.8526
X2.8526Y-1.8202
X2.8565Y-2.5289
X2.9062Y-2.4737
X3.1425Y-2.9947
X3.19Y-2.5289
X3.4383Y-3.9327
X3.5599Y-1.9895
X3.5599Y-4.9184
X3.5841Y-3.3351
X3.6078Y-3.6016
X3.632Y-3.3943
X3.6396Y-5.1171
X3.7583Y-2.1562
X3.7635Y-4.6171
X3.7822Y-2.6356
X3.8421Y-1.937
X3.8839Y-1.9926
X3.9162Y-1.5119
X3.9186Y-1.6368
X3.9874Y-1.6819
X3.9934Y-1.5875
X4.033Y-2.6429
X4.1118Y-1.6369
X4.1544Y-3.8613
X4.1787Y-2.1835
X4.3349Y-1.682
X4.3359Y-1.6123
X4.3377Y-3.5707
X4.3676Y-1.937
X4.3787Y-2.4419
X4.3898Y-3.0921
X4.429Y-3.6257
X4.4387Y-4.2845
X4.4571Y-3.8822
X4.4573Y-3.3279
X4.4603Y-2.2598
X4.5563Y-3.0751
X4.5787Y-2.5632
X4.6102Y-3.6306
X4.6438Y-4.3701
X4.6706Y-3.6053
X4.7107Y-4.1262
X4.7802Y-3.2049
X4.7891Y-3.3279
X4.8052Y-1.5354
X4.8287Y-4.1872
X4.8359Y-2.4324
X4.8614Y-2.6429
X4.9243Y-2.5131
X4.9243Y-3.2049
X4.9518Y-2.1562
X4.9537Y-1.437
X4.9787Y-2.21
X4.9882Y-4.1265
X5.0393Y-3.6306
X5.1787Y-4.3755
X5.4291Y-1.6027
T2
X5.1546Y-4.4317
X5.1546Y-4.5104
X5.1546Y-4.5892
X5.1546Y-4.6679
X5.2334Y-4.4317
X5.2334Y-4.5104
X5.2334Y-4.5892
X5.2334Y-4.6679
X5.3908Y-4.4317
X5.3908Y-4.5104
X5.3908Y-4.5892
X5.3908Y-4.6679
X5.4696Y-4.4317
X5.4696Y-4.5104
X5.4696Y-4.5892
X5.4696Y-4.6679
T3
X1.5142Y-3.7087
X1.6142Y-3.7087
X1.7142Y-3.7087
X2.9551Y-3.7087
X3.0551Y-3.7087
X3.1551Y-3.7087
T4
X1.376Y-2.748
X1.376Y-2.8465
X1.376Y-2.9449
X1.376Y-3.0433
X1.376Y-3.1417
X2.0965Y-2.748
X2.0965Y-2.8465
X2.0965Y-2.9449
X2.0965Y-3.0433
X2.0965Y-3.1417
X2.6594Y-2.748
X2.6594Y-2.8465
X2.6594Y-2.9449
X2.6594Y-3.0433
X2.6594Y-3.1417
X3.2465Y-4.0945
X3.3465Y-4.0945
X3.3799Y-2.748
X3.3799Y-2.8465
X3.3799Y-2.9449
X3.3799Y-3.0433
X3.3799Y-3.1417
T5
X1.3386Y-1.437
X1.3386Y-1.537
X1.3386Y-1.637
X1.3386Y-1.737
X1.3386Y-1.837
X1.3386Y-1.937
X1.3386Y-2.037
X1.3386Y-2.137
X1.3386Y-2.237
X1.3386Y-2.337
X1.4902Y-4.878
X1.5689Y-4.878
X1.5917Y-1.7126
X1.6476Y-4.878
X1.6902Y-1.7126
X1.7264Y-4.878
X1.7886Y-1.7126
X1.8051Y-4.878
X1.8839Y-4.878
X2.2165Y-4.3701
X2.2165Y-4.4701
X2.2165Y-4.5701
X2.2165Y-4.6701
X2.2165Y-4.7701
X2.2165Y-4.8701
X2.2165Y-4.9701
X2.2165Y-5.0701
X2.2165Y-5.1701
X2.2165Y-5.2701
X2.2335Y-4.0039
X2.2362Y-1.9055
X2.2362Y-2.4764
X2.3319Y-4.0039
X2.3346Y-2.4764
X2.4303Y-4.0039
X2.4331Y-1.9055
X2.4331Y-2.4764
X2.4528Y-4.3701
X2.4528Y-4.4701
X2.4528Y-4.5701
X2.4528Y-4.6701
X2.4528Y-4.7701
X2.4528Y-4.8701
X2.4528Y-4.9701
X2.4528Y-5.0701
X2.4528Y-5.1701
X2.4528Y-5.2701
X2.8752Y-1.7126
X2.9736Y-1.7126
X3.072Y-1.7126
X3.3307Y-1.437
X3.3307Y-1.537
X3.3307Y-1.637
X3.3307Y-1.737
X3.3307Y-1.837
X3.3307Y-1.937
X3.3307Y-2.037
X3.3307Y-2.137
X3.3307Y-2.237
X3.3307Y-2.337
X3.6457Y-1.437
X3.6457Y-1.537
X3.6457Y-1.637
X3.6457Y-1.737
X3.6457Y-1.837
X3.6457Y-1.937
X3.6457Y-2.037
X3.6457Y-2.137
X3.6457Y-2.237
X3.6457Y-2.337
X3.7094Y-4.1303
X3.8094Y-4.1303
X3.9094Y-4.1303
X4.0094Y-4.1303
X4.1094Y-4.1303
X4.2094Y-4.1303
X4.2252Y-4.3717
X4.2252Y-4.4717
X4.2252Y-4.5717
X4.2252Y-4.6717
X4.2252Y-4.7717
X4.2252Y-4.8717
X4.2252Y-4.9717
X4.2252Y-5.0717
X4.2252Y-5.1717
X4.3071Y-1.3858
X4.3071Y-2.3858
X4.4071Y-1.3858
X4.4071Y-2.3858
X4.5071Y-1.3858
X4.5071Y-2.3858
X4.5236Y-4.3701
X4.5236Y-4.4701
X4.5236Y-4.5701
X4.5236Y-4.6701
X4.5236Y-4.7701
X4.5236Y-4.8701
X4.5236Y-4.9701
X4.5236Y-5.0701
X4.5236Y-5.1701
X4.5236Y-5.2701
X4.6071Y-1.3858
X4.6071Y-2.3858
X4.7071Y-1.3858
X4.7071Y-2.3858
X4.7598Y-4.3701
X4.7598Y-4.4701
X4.7598Y-4.5701
X4.7598Y-4.6701
X4.7598Y-4.7701
X4.7598Y-4.8701
X4.7598Y-4.9701
X4.7598Y-5.0701
X4.7598Y-5.1701
X4.7598Y-5.2701
X4.8071Y-1.3858
X4.8071Y-2.3858
X5.1102Y-4.9
X5.1102Y-5.0
X5.2071Y-1.7858
X5.2071Y-1.8858
X5.2071Y-1.9858
X5.2102Y-4.9
X5.2102Y-5.0
X5.3102Y-4.9
X5.3102Y-5.0
X5.4102Y-4.9
X5.4102Y-5.0
X5.5102Y-4.9
X5.5102Y-5.0
X5.6378Y-1.437
X5.6378Y-1.537
X5.6378Y-1.637
X5.6378Y-1.737
X5.6378Y-1.837
X5.6378Y-1.937
X5.6378Y-2.037
X5.6378Y-2.137
X5.6378Y-2.237
X5.6378Y-2.337
T6
X3.6787Y-3.0039
X3.6787Y-3.7039
X3.7787Y-3.0039
X3.7787Y-3.7039
X3.8787Y-3.0039
X3.8787Y-3.7039
X3.9787Y-3.0039
X3.9787Y-3.7039
X4.0787Y-3.0039
X4.0787Y-3.7039
X4.1787Y-3.0039
X4.1787Y-3.7039
X4.2787Y-3.0039
X4.2787Y-3.7039
X4.3787Y-3.0039
X4.3787Y-3.7039
X4.4787Y-3.0039
X4.4787Y-3.7039
X4.5787Y-3.0039
X4.5787Y-3.7039
X4.6787Y-3.0039
X4.6787Y-3.7039
X4.7787Y-3.0039
X4.7787Y-3.7039
X4.8787Y-3.0039
X4.8787Y-3.7039
X4.9787Y-3.0039
X4.9787Y-3.7039
X5.0787Y-3.0039
X5.0787Y-3.7039
X5.1787Y-3.0039
X5.1787Y-3.7039
X5.2787Y-3.0039
X5.2787Y-3.7039
X5.3787Y-3.0039
X5.3787Y-3.7039
X5.4787Y-3.0039
X5.4787Y-3.7039
X5.5697Y-3.2539
X5.5697Y-3.3539
X5.5697Y-3.4539
X5.5787Y-3.0039
X5.5787Y-3.7039
T7
X4.9882Y-4.3317
X4.9882Y-4.6317
X5.6457Y-4.3264
X5.6457Y-4.6264
T8
X1.4764Y-4.9811
X1.9094Y-4.9811
X2.7598Y-4.7039
X2.7598Y-4.9811
X3.1929Y-4.7039
X3.1929Y-4.9811
T10
X1.4764Y-5.1031
X1.4764Y-5.4299
X1.9094Y-5.1031
X1.9094Y-5.4299
X2.7598Y-4.2551
X2.7598Y-4.5819
X2.7598Y-5.1031
X2.7598Y-5.4299
X3.1929Y-4.2551
X3.1929Y-4.5819
X3.1929Y-5.1031
X3.1929Y-5.4299
T11
X1.5012Y-1.4173
X1.8791Y-1.4173
X2.1429Y-3.7087
X2.5209Y-3.7087
X2.7846Y-1.4173
X3.1626Y-1.4173
T12
X1.6929Y-2.6299
X1.6929Y-3.2598
X2.9764Y-2.6299
X2.9764Y-3.2598
T13
X1.4764Y-5.2362
X1.9094Y-5.2362
X2.7598Y-4.4488
X2.7598Y-5.2362
X3.1929Y-4.4488
X3.1929Y-5.2362
T9
G00X2.1142Y-2.2067
M15
G01X2.1142Y-2.1555
M16
G05
G00X2.5551Y-2.2067
M15
G01X2.5551Y-2.1555
M16
G05
T12
G00X1.4587Y-4.4272
M15
G01X1.4587Y-4.4626
M16
G05
G00X1.9154Y-4.4272
M15
G01X1.9154Y-4.4626
M16
G05
M30
