M48
; DRILL file {KiCad 8.0.7} date 2024-12-26T12:36:26+0000
; FORMAT={-:-/ absolute / inch / decimal}
; #@! TF.CreationDate,2024-12-26T12:36:26+00:00
; #@! TF.GenerationSoftware,Kicad,Pcbnew,8.0.7
; #@! TF.FileFunction,Plated,1,2,PTH
FMAT,2
INCH
; #@! TA.AperFunction,Plated,PTH,ViaDrill
T1C0.0118
; #@! TA.AperFunction,Plated,PTH,ComponentDrill
T2C0.0300
; #@! TA.AperFunction,Plated,PTH,ComponentDrill
T3C0.0354
; #@! TA.AperFunction,Plated,PTH,ComponentDrill
T4C0.0394
; #@! TA.AperFunction,Plated,PTH,ComponentDrill
T5C0.0402
; #@! TA.AperFunction,Plated,PTH,ComponentDrill
T6C0.0433
; #@! TA.AperFunction,Plated,PTH,ComponentDrill
T7C0.0551
; #@! TA.AperFunction,Plated,PTH,ComponentDrill
T8C0.0591
; #@! TA.AperFunction,Plated,PTH,ComponentDrill
T9C0.0630
; #@! TA.AperFunction,Plated,PTH,ComponentDrill
T10C0.0709
; #@! TA.AperFunction,Plated,PTH,ComponentDrill
T11C0.0787
; #@! TA.AperFunction,Plated,PTH,ComponentDrill
T12C0.1181
%
G90
G05
T1
X2.5269Y-4.4827
X3.6112Y-4.0709
X3.6299Y-2.4882
X3.7165Y-1.7402
X4.0787Y-3.8375
X4.224Y-2.4354
X4.224Y-3.0565
X4.3379Y-2.4388
X4.5659Y-2.5112
X4.5865Y-2.3232
X4.6096Y-3.3617
X4.6132Y-2.4875
X4.6133Y-2.4429
X4.6379Y-4.3081
X4.7096Y-2.8679
X4.892Y-2.7525
X4.8965Y-4.2023
X5.0971Y-2.8421
X5.184Y-3.4529
X5.2783Y-4.5216
X5.2801Y-4.1676
T2
X1.5142Y-3.7087
X1.6142Y-3.7087
X1.7142Y-3.7087
X2.9551Y-3.7087
X3.0551Y-3.7087
X3.1551Y-3.7087
T3
X1.4961Y-2.628
X1.4961Y-3.3484
X1.5945Y-2.628
X1.5945Y-3.3484
X1.6929Y-2.628
X1.6929Y-3.3484
X1.7913Y-2.628
X1.7913Y-3.3484
X1.8898Y-2.628
X1.8898Y-3.3484
X2.7795Y-2.628
X2.7795Y-3.3484
X2.878Y-2.628
X2.878Y-3.3484
X2.9764Y-2.628
X2.9764Y-3.3484
X3.0748Y-2.628
X3.0748Y-3.3484
X3.1732Y-2.628
X3.1732Y-3.3484
X3.2494Y-4.1102
X3.3494Y-4.1102
T4
X1.2992Y-1.437
X1.2992Y-1.537
X1.2992Y-1.637
X1.2992Y-1.737
X1.2992Y-1.837
X1.2992Y-1.937
X1.2992Y-2.037
X1.2992Y-2.137
X1.2992Y-2.237
X1.2992Y-2.337
X1.502Y-4.0433
X1.5807Y-4.0433
X1.5917Y-1.7126
X1.6594Y-4.0433
X1.6902Y-1.7126
X1.7382Y-4.0433
X1.7886Y-1.7126
X1.8169Y-4.0433
X1.8957Y-4.0433
X2.2165Y-4.3701
X2.2165Y-4.4701
X2.2165Y-4.5701
X2.2165Y-4.6701
X2.2165Y-4.7701
X2.2165Y-4.8701
X2.2165Y-4.9701
X2.2165Y-5.0701
X2.2165Y-5.1701
X2.2165Y-5.2701
X2.2362Y-1.9055
X2.2362Y-2.4764
X2.239Y-3.4134
X2.3346Y-2.4764
X2.3374Y-3.4134
X2.4331Y-1.9055
X2.4331Y-2.4764
X2.4358Y-3.4134
X2.4528Y-4.3701
X2.4528Y-4.4701
X2.4528Y-4.5701
X2.4528Y-4.6701
X2.4528Y-4.7701
X2.4528Y-4.8701
X2.4528Y-4.9701
X2.4528Y-5.0701
X2.4528Y-5.1701
X2.4528Y-5.2701
X2.8752Y-1.7126
X2.9736Y-1.7126
X3.072Y-1.7126
X3.3701Y-1.437
X3.3701Y-1.537
X3.3701Y-1.637
X3.3701Y-1.737
X3.3701Y-1.837
X3.3701Y-1.937
X3.3701Y-2.037
X3.3701Y-2.137
X3.3701Y-2.237
X3.3701Y-2.337
X3.6063Y-1.437
X3.6063Y-1.537
X3.6063Y-1.637
X3.6063Y-1.737
X3.6063Y-1.837
X3.6063Y-1.937
X3.6063Y-2.037
X3.6063Y-2.137
X3.6063Y-2.237
X3.6063Y-2.337
X3.7094Y-4.1303
X3.8094Y-4.1303
X3.9094Y-4.1303
X4.0094Y-4.1303
X4.1094Y-4.1303
X4.2094Y-4.1303
X4.2252Y-4.3717
X4.2252Y-4.4717
X4.2252Y-4.5717
X4.2252Y-4.6717
X4.2252Y-4.7717
X4.2252Y-4.8717
X4.2252Y-4.9717
X4.2252Y-5.0717
X4.2252Y-5.1717
X4.3071Y-1.3858
X4.3071Y-2.3858
X4.4071Y-1.3858
X4.4071Y-2.3858
X4.5071Y-1.3858
X4.5071Y-2.3858
X4.5236Y-4.3701
X4.5236Y-4.4701
X4.5236Y-4.5701
X4.5236Y-4.6701
X4.5236Y-4.7701
X4.5236Y-4.8701
X4.5236Y-4.9701
X4.5236Y-5.0701
X4.5236Y-5.1701
X4.5236Y-5.2701
X4.6071Y-1.3858
X4.6071Y-2.3858
X4.7071Y-1.3858
X4.7071Y-2.3858
X4.7598Y-4.3701
X4.7598Y-4.4701
X4.7598Y-4.5701
X4.7598Y-4.6701
X4.7598Y-4.7701
X4.7598Y-4.8701
X4.7598Y-4.9701
X4.7598Y-5.0701
X4.7598Y-5.1701
X4.7598Y-5.2701
X4.8071Y-1.3858
X4.8071Y-2.3858
X5.1102Y-4.9331
X5.1102Y-5.0331
X5.2071Y-1.7858
X5.2071Y-1.8858
X5.2071Y-1.9858
X5.2102Y-4.9331
X5.2102Y-5.0331
X5.3102Y-4.9331
X5.3102Y-5.0331
X5.4102Y-4.9331
X5.4102Y-5.0331
X5.5102Y-4.9331
X5.5102Y-5.0331
X5.6772Y-1.437
X5.6772Y-1.537
X5.6772Y-1.637
X5.6772Y-1.737
X5.6772Y-1.837
X5.6772Y-1.937
X5.6772Y-2.037
X5.6772Y-2.137
X5.6772Y-2.237
X5.6772Y-2.337
T5
X3.6787Y-3.0039
X3.6787Y-3.7039
X3.7787Y-3.0039
X3.7787Y-3.7039
X3.8787Y-3.0039
X3.8787Y-3.7039
X3.9787Y-3.0039
X3.9787Y-3.7039
X4.0787Y-3.0039
X4.0787Y-3.7039
X4.1787Y-3.0039
X4.1787Y-3.7039
X4.2787Y-3.0039
X4.2787Y-3.7039
X4.3787Y-3.0039
X4.3787Y-3.7039
X4.4787Y-3.0039
X4.4787Y-3.7039
X4.5787Y-3.0039
X4.5787Y-3.7039
X4.6787Y-3.0039
X4.6787Y-3.7039
X4.7787Y-3.0039
X4.7787Y-3.7039
X4.8787Y-3.0039
X4.8787Y-3.7039
X4.9787Y-3.0039
X4.9787Y-3.7039
X5.0787Y-3.0039
X5.0787Y-3.7039
X5.1787Y-3.0039
X5.1787Y-3.7039
X5.2787Y-3.0039
X5.2787Y-3.7039
X5.3787Y-3.0039
X5.3787Y-3.7039
X5.4787Y-3.0039
X5.4787Y-3.7039
X5.5697Y-3.2539
X5.5697Y-3.3539
X5.5697Y-3.4539
X5.5787Y-3.0039
X5.5787Y-3.7039
T6
X5.0079Y-4.3776
X5.0079Y-4.6776
X5.6378Y-4.3933
X5.6378Y-4.6933
T7
X1.4764Y-4.9811
X1.9094Y-4.9811
X2.7598Y-4.7276
X2.7598Y-4.9811
X3.1929Y-4.7276
X3.1929Y-4.9811
T9
X1.4764Y-5.1031
X1.4764Y-5.4299
X1.9094Y-5.1031
X1.9094Y-5.4299
X2.7598Y-4.2787
X2.7598Y-4.6055
X2.7598Y-5.1031
X2.7598Y-5.4299
X3.1929Y-4.2787
X3.1929Y-4.6055
X3.1929Y-5.1031
X3.1929Y-5.4299
T10
X1.5012Y-1.4173
X1.8791Y-1.4173
X2.1484Y-3.7087
X2.5264Y-3.7087
X2.7846Y-1.4173
X3.1626Y-1.4173
T11
X1.378Y-2.9449
X2.0079Y-2.9449
X2.6614Y-2.9449
X3.2913Y-2.9449
T12
X1.4764Y-5.2362
X1.9094Y-5.2362
X2.7598Y-4.4724
X2.7598Y-5.2362
X3.1929Y-4.4724
X3.1929Y-5.2362
T8
G00X2.1142Y-2.2067
M15
G01X2.1142Y-2.1555
M16
G05
G00X2.5551Y-2.2067
M15
G01X2.5551Y-2.1555
M16
G05
T11
G00X1.4705Y-4.4941
M15
G01X1.4705Y-4.4587
M16
G05
G00X1.9272Y-4.4941
M15
G01X1.9272Y-4.4587
M16
G05
M30
